<?xml version="1.0" encoding="UTF-8" standalone="no"?>
<!DOCTYPE svg PUBLIC "-//W3C//DTD SVG 1.1//EN"
 "http://www.w3.org/Graphics/SVG/1.1/DTD/svg11.dtd">
<!-- Generated by graphviz version 2.42.4 (0)
 -->
<!-- Title: BenchmarkHarness::run Pages: 1 -->
<svg width="567pt" height="306pt"
 viewBox="0.00 0.00 567.00 305.50" xmlns="http://www.w3.org/2000/svg" xmlns:xlink="http://www.w3.org/1999/xlink">
<g id="graph0" class="graph" transform="scale(1 1) rotate(0) translate(4 301.5)">
<title>BenchmarkHarness::run</title>
<!-- Node1 -->
<g id="Node000001" class="node">
<title>Node1</title>
<g id="a_Node000001"><a xlink:title="Run the benchmark and collect metrics.">
<polygon fill="#999999" stroke="#666666" points="134,-158 0,-158 0,-139 134,-139 134,-158"/>
<text text-anchor="middle" x="67" y="-146" font-family="Helvetica,sans-Serif" font-size="10.00">BenchmarkHarness::run</text>
</a>
</g>
</g>
<!-- Node2 -->
<g id="Node000002" class="node">
<title>Node2</title>
<g id="a_Node000002"><a xlink:href="../../d5/df1/class_benchmark_harness.html#a8ab58dfdf6efce16c84f6ca728b65335" target="_top" xlink:title="Consumer worker thread function.">
<polygon fill="white" stroke="#666666" points="336,-249.5 170,-249.5 170,-219.5 336,-219.5 336,-249.5"/>
<text text-anchor="start" x="178" y="-237.5" font-family="Helvetica,sans-Serif" font-size="10.00">BenchmarkHarness::consumer</text>
<text text-anchor="middle" x="253" y="-226.5" font-family="Helvetica,sans-Serif" font-size="10.00">_worker</text>
</a>
</g>
</g>
<!-- Node1&#45;&gt;Node2 -->
<g id="edge1_Node000001_Node000002" class="edge">
<title>Node1&#45;&gt;Node2</title>
<g id="a_edge1_Node000001_Node000002"><a xlink:title=" ">
<path fill="none" stroke="#63b8ff" d="M83.13,-158.03C102.68,-170.09 138.02,-191.04 170,-205.5 178.1,-209.16 186.8,-212.67 195.41,-215.91"/>
<polygon fill="#63b8ff" stroke="#63b8ff" points="194.46,-219.29 205.06,-219.44 196.87,-212.71 194.46,-219.29"/>
</a>
</g>
</g>
<!-- Node4 -->
<g id="Node000004" class="node">
<title>Node4</title>
<g id="a_Node000004"><a xlink:href="../../d5/df1/class_benchmark_harness.html#a6b0853eb2949f2a76e003f62b8159c07" target="_top" xlink:title="Demangle C++ type name for readable output.">
<polygon fill="white" stroke="#666666" points="549,-249.5 382,-249.5 382,-219.5 549,-219.5 549,-249.5"/>
<text text-anchor="start" x="390" y="-237.5" font-family="Helvetica,sans-Serif" font-size="10.00">BenchmarkHarness::demangle</text>
<text text-anchor="middle" x="465.5" y="-226.5" font-family="Helvetica,sans-Serif" font-size="10.00">_type_name</text>
</a>
</g>
</g>
<!-- Node1&#45;&gt;Node4 -->
<g id="edge4_Node000001_Node000004" class="edge">
<title>Node1&#45;&gt;Node4</title>
<g id="a_edge4_Node000001_Node000004"><a xlink:title=" ">
<path fill="none" stroke="#63b8ff" d="M107.67,-158.06C126.53,-162.55 149.4,-167.91 170,-172.5 240.87,-188.29 321.57,-205.21 380.56,-217.38"/>
<polygon fill="#63b8ff" stroke="#63b8ff" points="380.07,-220.85 390.57,-219.44 381.48,-213.99 380.07,-220.85"/>
</a>
</g>
</g>
<!-- Node5 -->
<g id="Node000005" class="node">
<title>Node5</title>
<g id="a_Node000005"><a xlink:href="../../d5/df1/class_benchmark_harness.html#adfe944ea37515cb3c587c0e35d08187b" target="_top" xlink:title="Print benchmark results.">
<polygon fill="white" stroke="#666666" points="323,-163.5 183,-163.5 183,-133.5 323,-133.5 323,-163.5"/>
<text text-anchor="start" x="191" y="-151.5" font-family="Helvetica,sans-Serif" font-size="10.00">BenchmarkHarness::print</text>
<text text-anchor="middle" x="253" y="-140.5" font-family="Helvetica,sans-Serif" font-size="10.00">_results</text>
</a>
</g>
</g>
<!-- Node1&#45;&gt;Node5 -->
<g id="edge5_Node000001_Node000005" class="edge">
<title>Node1&#45;&gt;Node5</title>
<g id="a_edge5_Node000001_Node000005"><a xlink:title=" ">
<path fill="none" stroke="#63b8ff" d="M134.17,-148.5C146.61,-148.5 159.73,-148.5 172.53,-148.5"/>
<polygon fill="#63b8ff" stroke="#63b8ff" points="172.7,-152 182.7,-148.5 172.7,-145 172.7,-152"/>
</a>
</g>
</g>
<!-- Node8 -->
<g id="Node000008" class="node">
<title>Node8</title>
<g id="a_Node000008"><a xlink:href="../../d5/df1/class_benchmark_harness.html#a954c1917a9fd4513292a909db4dba376" target="_top" xlink:title="Producer worker thread function.">
<polygon fill="white" stroke="#666666" points="333.5,-297.5 172.5,-297.5 172.5,-267.5 333.5,-267.5 333.5,-297.5"/>
<text text-anchor="start" x="180.5" y="-285.5" font-family="Helvetica,sans-Serif" font-size="10.00">BenchmarkHarness::producer</text>
<text text-anchor="middle" x="253" y="-274.5" font-family="Helvetica,sans-Serif" font-size="10.00">_worker</text>
</a>
</g>
</g>
<!-- Node1&#45;&gt;Node8 -->
<g id="edge9_Node000001_Node000008" class="edge">
<title>Node1&#45;&gt;Node8</title>
<g id="a_edge9_Node000001_Node000008"><a xlink:title=" ">
<path fill="none" stroke="#63b8ff" d="M74.15,-158.05C88.36,-179.37 125.7,-231.1 170,-258.5 172.78,-260.22 175.68,-261.82 178.67,-263.3"/>
<polygon fill="#63b8ff" stroke="#63b8ff" points="177.3,-266.53 187.85,-267.45 180.18,-260.14 177.3,-266.53"/>
</a>
</g>
</g>
<!-- Node9 -->
<g id="Node000009" class="node">
<title>Node9</title>
<g id="a_Node000009"><a xlink:href="../../d9/d4a/struct_benchmark_harness_1_1_statistics.html#a4207834ab7ef31ef3af941133bf9337b" target="_top" xlink:title="Reset statistics.">
<polygon fill="white" stroke="#666666" points="334.5,-115.5 171.5,-115.5 171.5,-85.5 334.5,-85.5 334.5,-115.5"/>
<text text-anchor="start" x="179.5" y="-103.5" font-family="Helvetica,sans-Serif" font-size="10.00">BenchmarkHarness::Statistics</text>
<text text-anchor="middle" x="253" y="-92.5" font-family="Helvetica,sans-Serif" font-size="10.00">::reset</text>
</a>
</g>
</g>
<!-- Node1&#45;&gt;Node9 -->
<g id="edge12_Node000001_Node000009" class="edge">
<title>Node1&#45;&gt;Node9</title>
<g id="a_edge12_Node000001_Node000009"><a xlink:title=" ">
<path fill="none" stroke="#63b8ff" d="M104.79,-138.9C127.58,-132.96 157.55,-125.14 184.49,-118.11"/>
<polygon fill="#63b8ff" stroke="#63b8ff" points="185.47,-121.47 194.26,-115.56 183.7,-114.7 185.47,-121.47"/>
</a>
</g>
</g>
<!-- Node10 -->
<g id="Node000010" class="node">
<title>Node10</title>
<g id="a_Node000010"><a xlink:href="../../d9/d4a/struct_benchmark_harness_1_1_statistics.html#ad3991b4b5037b743ac4e71eaa692aa63" target="_top" xlink:title="Sort latencies for percentile calculation.">
<polygon fill="white" stroke="#666666" points="334.5,-67.5 171.5,-67.5 171.5,-37.5 334.5,-37.5 334.5,-67.5"/>
<text text-anchor="start" x="179.5" y="-55.5" font-family="Helvetica,sans-Serif" font-size="10.00">BenchmarkHarness::Statistics</text>
<text text-anchor="middle" x="253" y="-44.5" font-family="Helvetica,sans-Serif" font-size="10.00">::sort</text>
</a>
</g>
</g>
<!-- Node1&#45;&gt;Node10 -->
<g id="edge13_Node000001_Node000010" class="edge">
<title>Node1&#45;&gt;Node10</title>
<g id="a_edge13_Node000001_Node000010"><a xlink:title=" ">
<path fill="none" stroke="#63b8ff" d="M78.85,-138.98C96.7,-123.77 133.89,-93.93 170,-76.5 174.02,-74.56 178.22,-72.75 182.51,-71.06"/>
<polygon fill="#63b8ff" stroke="#63b8ff" points="183.84,-74.29 192.01,-67.54 181.42,-67.73 183.84,-74.29"/>
</a>
</g>
</g>
<!-- Node11 -->
<g id="Node000011" class="node">
<title>Node11</title>
<g id="a_Node000011"><a xlink:href="../../d5/df1/class_benchmark_harness.html#a1efa36c9fd527e1b4eeea4cad7569365" target="_top" xlink:title="Warm&#45;up phase to stabilize system state.">
<polygon fill="white" stroke="#666666" points="332,-19 174,-19 174,0 332,0 332,-19"/>
<text text-anchor="middle" x="253" y="-7" font-family="Helvetica,sans-Serif" font-size="10.00">BenchmarkHarness::warmup</text>
</a>
</g>
</g>
<!-- Node1&#45;&gt;Node11 -->
<g id="edge14_Node000001_Node000011" class="edge">
<title>Node1&#45;&gt;Node11</title>
<g id="a_edge14_Node000001_Node000011"><a xlink:title=" ">
<path fill="none" stroke="#63b8ff" d="M73.21,-138.91C86.23,-115.91 122.59,-57.37 170,-28.5 173.58,-26.32 177.39,-24.39 181.33,-22.68"/>
<polygon fill="#63b8ff" stroke="#63b8ff" points="182.63,-25.93 190.71,-19.08 180.12,-19.39 182.63,-25.93"/>
</a>
</g>
</g>
<!-- Node3 -->
<g id="Node000003" class="node">
<title>Node3</title>
<g id="a_Node000003"><a xlink:href="../../d9/d4a/struct_benchmark_harness_1_1_statistics.html#a5c281bbe2097f2de982f2525cfbe6a16" target="_top" xlink:title="Add a latency measurement.">
<polygon fill="white" stroke="#666666" points="559,-289 372,-289 372,-270 559,-270 559,-289"/>
<text text-anchor="middle" x="465.5" y="-277" font-family="Helvetica,sans-Serif" font-size="10.00">BenchmarkHarness::Statistics::add</text>
</a>
</g>
</g>
<!-- Node2&#45;&gt;Node3 -->
<g id="edge2_Node000002_Node000003" class="edge">
<title>Node2&#45;&gt;Node3</title>
<g id="a_edge2_Node000002_Node000003"><a xlink:title=" ">
<path fill="none" stroke="#63b8ff" d="M324.39,-249.55C352.24,-255.5 383.77,-262.24 409.86,-267.82"/>
<polygon fill="#63b8ff" stroke="#63b8ff" points="409.42,-271.31 419.93,-269.97 410.89,-264.46 409.42,-271.31"/>
</a>
</g>
</g>
<!-- Node2&#45;&gt;Node4 -->
<g id="edge3_Node000002_Node000004" class="edge">
<title>Node2&#45;&gt;Node4</title>
<g id="a_edge3_Node000002_Node000004"><a xlink:title=" ">
<path fill="none" stroke="#63b8ff" d="M336.29,-234.5C347.88,-234.5 359.87,-234.5 371.64,-234.5"/>
<polygon fill="#63b8ff" stroke="#63b8ff" points="371.92,-238 381.92,-234.5 371.92,-231 371.92,-238"/>
</a>
</g>
</g>
<!-- Node6 -->
<g id="Node000006" class="node">
<title>Node6</title>
<g id="a_Node000006"><a xlink:href="../../d9/d4a/struct_benchmark_harness_1_1_statistics.html#aea4d54c650d5a1d1526f8aaa2aaff874" target="_top" xlink:title="Get average latency.">
<polygon fill="white" stroke="#666666" points="559,-179 372,-179 372,-160 559,-160 559,-179"/>
<text text-anchor="middle" x="465.5" y="-167" font-family="Helvetica,sans-Serif" font-size="10.00">BenchmarkHarness::Statistics::avg</text>
</a>
</g>
</g>
<!-- Node5&#45;&gt;Node6 -->
<g id="edge6_Node000005_Node000006" class="edge">
<title>Node5&#45;&gt;Node6</title>
<g id="a_edge6_Node000005_Node000006"><a xlink:title=" ">
<path fill="none" stroke="#63b8ff" d="M323.22,-155.41C335.63,-156.64 348.8,-157.96 361.92,-159.27"/>
<polygon fill="#63b8ff" stroke="#63b8ff" points="361.63,-162.76 371.93,-160.27 362.33,-155.79 361.63,-162.76"/>
</a>
</g>
</g>
<!-- Node7 -->
<g id="Node000007" class="node">
<title>Node7</title>
<g id="a_Node000007"><a xlink:href="../../d9/d4a/struct_benchmark_harness_1_1_statistics.html#ad8faaa626f7e0a120b6e260f1dafae2f" target="_top" xlink:title="Get percentile latency.">
<polygon fill="white" stroke="#666666" points="547,-123.5 384,-123.5 384,-93.5 547,-93.5 547,-123.5"/>
<text text-anchor="start" x="392" y="-111.5" font-family="Helvetica,sans-Serif" font-size="10.00">BenchmarkHarness::Statistics</text>
<text text-anchor="middle" x="465.5" y="-100.5" font-family="Helvetica,sans-Serif" font-size="10.00">::percentile</text>
</a>
</g>
</g>
<!-- Node5&#45;&gt;Node7 -->
<g id="edge7_Node000005_Node000007" class="edge">
<title>Node5&#45;&gt;Node7</title>
<g id="a_edge7_Node000005_Node000007"><a xlink:title=" ">
<path fill="none" stroke="#63b8ff" d="M323.22,-135.35C339.85,-132.19 357.84,-128.77 375.23,-125.46"/>
<polygon fill="#63b8ff" stroke="#63b8ff" points="376.22,-128.84 385.39,-123.53 374.92,-121.96 376.22,-128.84"/>
</a>
</g>
</g>
<!-- Node7&#45;&gt;Node7 -->
<g id="edge8_Node000007_Node000007" class="edge">
<title>Node7&#45;&gt;Node7</title>
<g id="a_edge8_Node000007_Node000007"><a xlink:title=" ">
<path fill="none" stroke="#63b8ff" d="M428.23,-123.78C419.95,-132.91 432.38,-141.5 465.5,-141.5 485.17,-141.5 497.54,-138.47 502.61,-134.1"/>
<polygon fill="#63b8ff" stroke="#63b8ff" points="506.11,-133.83 502.77,-123.78 499.11,-133.72 506.11,-133.83"/>
</a>
</g>
</g>
<!-- Node8&#45;&gt;Node3 -->
<g id="edge10_Node000008_Node000003" class="edge">
<title>Node8&#45;&gt;Node3</title>
<g id="a_edge10_Node000008_Node000003"><a xlink:title=" ">
<path fill="none" stroke="#63b8ff" d="M333.58,-281.37C342.73,-281.24 352.15,-281.1 361.55,-280.97"/>
<polygon fill="#63b8ff" stroke="#63b8ff" points="361.78,-284.46 371.73,-280.82 361.68,-277.47 361.78,-284.46"/>
</a>
</g>
</g>
<!-- Node8&#45;&gt;Node4 -->
<g id="edge11_Node000008_Node000004" class="edge">
<title>Node8&#45;&gt;Node4</title>
<g id="a_edge11_Node000008_Node000004"><a xlink:title=" ">
<path fill="none" stroke="#63b8ff" d="M320.03,-267.44C341.87,-262.46 366.35,-256.88 388.86,-251.75"/>
<polygon fill="#63b8ff" stroke="#63b8ff" points="389.74,-255.14 398.71,-249.5 388.18,-248.31 389.74,-255.14"/>
</a>
</g>
</g>
</g>
</svg>
