<?xml version="1.0" encoding="UTF-8" standalone="no"?>
<!DOCTYPE svg PUBLIC "-//W3C//DTD SVG 1.1//EN"
 "http://www.w3.org/Graphics/SVG/1.1/DTD/svg11.dtd">
<!-- Generated by graphviz version 2.42.4 (0)
 -->
<!-- Title: BenchmarkHarness::demangle_type_name Pages: 1 -->
<svg width="624pt" height="124pt"
 viewBox="0.00 0.00 624.00 124.00" xmlns="http://www.w3.org/2000/svg" xmlns:xlink="http://www.w3.org/1999/xlink">
<g id="graph0" class="graph" transform="scale(1 1) rotate(0) translate(4 120)">
<title>BenchmarkHarness::demangle_type_name</title>
<!-- Node1 -->
<g id="Node000001" class="node">
<title>Node1</title>
<g id="a_Node000001"><a xlink:title="Demangle C++ type name for readable output.">
<polygon fill="#999999" stroke="#666666" points="616,-73 449,-73 449,-43 616,-43 616,-73"/>
<text text-anchor="start" x="457" y="-61" font-family="Helvetica,sans-Serif" font-size="10.00">BenchmarkHarness::demangle</text>
<text text-anchor="middle" x="532.5" y="-50" font-family="Helvetica,sans-Serif" font-size="10.00">_type_name</text>
</a>
</g>
</g>
<!-- Node2 -->
<g id="Node000002" class="node">
<title>Node2</title>
<g id="a_Node000002"><a xlink:href="../../d5/df1/class_benchmark_harness.html#a8ab58dfdf6efce16c84f6ca728b65335" target="_top" xlink:title="Consumer worker thread function.">
<polygon fill="white" stroke="#666666" points="413,-116 247,-116 247,-86 413,-86 413,-116"/>
<text text-anchor="start" x="255" y="-104" font-family="Helvetica,sans-Serif" font-size="10.00">BenchmarkHarness::consumer</text>
<text text-anchor="middle" x="330" y="-93" font-family="Helvetica,sans-Serif" font-size="10.00">_worker</text>
</a>
</g>
</g>
<!-- Node1&#45;&gt;Node2 -->
<g id="edge1_Node000001_Node000002" class="edge">
<title>Node1&#45;&gt;Node2</title>
<g id="a_edge1_Node000001_Node000002"><a xlink:title=" ">
<path fill="none" stroke="#63b8ff" d="M451.17,-75.23C434.59,-78.78 417.26,-82.5 401.09,-85.97"/>
<polygon fill="#63b8ff" stroke="#63b8ff" points="452.33,-78.56 461.37,-73.04 450.86,-71.71 452.33,-78.56"/>
</a>
</g>
</g>
<!-- Node3 -->
<g id="Node000003" class="node">
<title>Node3</title>
<g id="a_Node000003"><a xlink:href="../../d5/df1/class_benchmark_harness.html#ab98039f28d238ec4a655b92a400b747c" target="_top" xlink:title="Run the benchmark and collect metrics.">
<polygon fill="white" stroke="#666666" points="211,-67.5 77,-67.5 77,-48.5 211,-48.5 211,-67.5"/>
<text text-anchor="middle" x="144" y="-55.5" font-family="Helvetica,sans-Serif" font-size="10.00">BenchmarkHarness::run</text>
</a>
</g>
</g>
<!-- Node1&#45;&gt;Node3 -->
<g id="edge6_Node000001_Node000003" class="edge">
<title>Node1&#45;&gt;Node3</title>
<g id="a_edge6_Node000001_Node000003"><a xlink:title=" ">
<path fill="none" stroke="#63b8ff" d="M438.41,-58C368.23,-58 273.69,-58 211.11,-58"/>
<polygon fill="#63b8ff" stroke="#63b8ff" points="438.59,-61.5 448.59,-58 438.59,-54.5 438.59,-61.5"/>
</a>
</g>
</g>
<!-- Node5 -->
<g id="Node000005" class="node">
<title>Node5</title>
<g id="a_Node000005"><a xlink:href="../../d5/df1/class_benchmark_harness.html#a954c1917a9fd4513292a909db4dba376" target="_top" xlink:title="Producer worker thread function.">
<polygon fill="white" stroke="#666666" points="410.5,-30 249.5,-30 249.5,0 410.5,0 410.5,-30"/>
<text text-anchor="start" x="257.5" y="-18" font-family="Helvetica,sans-Serif" font-size="10.00">BenchmarkHarness::producer</text>
<text text-anchor="middle" x="330" y="-7" font-family="Helvetica,sans-Serif" font-size="10.00">_worker</text>
</a>
</g>
</g>
<!-- Node1&#45;&gt;Node5 -->
<g id="edge4_Node000001_Node000005" class="edge">
<title>Node1&#45;&gt;Node5</title>
<g id="a_edge4_Node000001_Node000005"><a xlink:title=" ">
<path fill="none" stroke="#63b8ff" d="M451.17,-40.77C434.59,-37.22 417.26,-33.5 401.09,-30.03"/>
<polygon fill="#63b8ff" stroke="#63b8ff" points="450.86,-44.29 461.37,-42.96 452.33,-37.44 450.86,-44.29"/>
</a>
</g>
</g>
<!-- Node2&#45;&gt;Node3 -->
<g id="edge2_Node000002_Node000003" class="edge">
<title>Node2&#45;&gt;Node3</title>
<g id="a_edge2_Node000002_Node000003"><a xlink:title=" ">
<path fill="none" stroke="#63b8ff" d="M254.68,-83.63C231.15,-78.13 206.01,-72.26 185.75,-67.52"/>
<polygon fill="#63b8ff" stroke="#63b8ff" points="254.11,-87.09 264.65,-85.96 255.7,-80.28 254.11,-87.09"/>
</a>
</g>
</g>
<!-- Node4 -->
<g id="Node000004" class="node">
<title>Node4</title>
<g id="a_Node000004"><a xlink:href="../../d7/dc3/benchmark__main_8cpp.html#a0ddf1224851353fc92bfbff6f499fa97" target="_top" xlink:title="Main entry point.">
<polygon fill="white" stroke="#666666" points="41,-67.5 0,-67.5 0,-48.5 41,-48.5 41,-67.5"/>
<text text-anchor="middle" x="20.5" y="-55.5" font-family="Helvetica,sans-Serif" font-size="10.00">main</text>
</a>
</g>
</g>
<!-- Node3&#45;&gt;Node4 -->
<g id="edge3_Node000003_Node000004" class="edge">
<title>Node3&#45;&gt;Node4</title>
<g id="a_edge3_Node000003_Node000004"><a xlink:title=" ">
<path fill="none" stroke="#63b8ff" d="M66.65,-58C57.34,-58 48.56,-58 41.25,-58"/>
<polygon fill="#63b8ff" stroke="#63b8ff" points="66.92,-61.5 76.92,-58 66.92,-54.5 66.92,-61.5"/>
</a>
</g>
</g>
<!-- Node5&#45;&gt;Node3 -->
<g id="edge5_Node000005_Node000003" class="edge">
<title>Node5&#45;&gt;Node3</title>
<g id="a_edge5_Node000005_Node000003"><a xlink:title=" ">
<path fill="none" stroke="#63b8ff" d="M254.68,-32.37C231.15,-37.87 206.01,-43.74 185.75,-48.48"/>
<polygon fill="#63b8ff" stroke="#63b8ff" points="255.7,-35.72 264.65,-30.04 254.11,-28.91 255.7,-35.72"/>
</a>
</g>
</g>
</g>
</svg>
