<?xml version="1.0" encoding="UTF-8" standalone="no"?>
<!DOCTYPE svg PUBLIC "-//W3C//DTD SVG 1.1//EN"
 "http://www.w3.org/Graphics/SVG/1.1/DTD/svg11.dtd">
<!-- Generated by graphviz version 2.42.4 (0)
 -->
<!-- Title: BenchmarkHarness::warmup Pages: 1 -->
<svg width="413pt" height="27pt"
 viewBox="0.00 0.00 413.00 27.00" xmlns="http://www.w3.org/2000/svg" xmlns:xlink="http://www.w3.org/1999/xlink">
<g id="graph0" class="graph" transform="scale(1 1) rotate(0) translate(4 23)">
<title>BenchmarkHarness::warmup</title>
<!-- Node1 -->
<g id="Node000001" class="node">
<title>Node1</title>
<g id="a_Node000001"><a xlink:title="Warm&#45;up phase to stabilize system state.">
<polygon fill="#999999" stroke="#666666" points="405,-19 247,-19 247,0 405,0 405,-19"/>
<text text-anchor="middle" x="326" y="-7" font-family="Helvetica,sans-Serif" font-size="10.00">BenchmarkHarness::warmup</text>
</a>
</g>
</g>
<!-- Node2 -->
<g id="Node000002" class="node">
<title>Node2</title>
<g id="a_Node000002"><a xlink:href="../../d5/df1/class_benchmark_harness.html#ab98039f28d238ec4a655b92a400b747c" target="_top" xlink:title="Run the benchmark and collect metrics.">
<polygon fill="white" stroke="#666666" points="211,-19 77,-19 77,0 211,0 211,-19"/>
<text text-anchor="middle" x="144" y="-7" font-family="Helvetica,sans-Serif" font-size="10.00">BenchmarkHarness::run</text>
</a>
</g>
</g>
<!-- Node1&#45;&gt;Node2 -->
<g id="edge1_Node000001_Node000002" class="edge">
<title>Node1&#45;&gt;Node2</title>
<g id="a_edge1_Node000001_Node000002"><a xlink:title=" ">
<path fill="none" stroke="#63b8ff" d="M236.78,-9.5C228.19,-9.5 219.58,-9.5 211.26,-9.5"/>
<polygon fill="#63b8ff" stroke="#63b8ff" points="236.83,-13 246.83,-9.5 236.83,-6 236.83,-13"/>
</a>
</g>
</g>
<!-- Node3 -->
<g id="Node000003" class="node">
<title>Node3</title>
<g id="a_Node000003"><a xlink:href="../../d7/dc3/benchmark__main_8cpp.html#a0ddf1224851353fc92bfbff6f499fa97" target="_top" xlink:title="Main entry point.">
<polygon fill="white" stroke="#666666" points="41,-19 0,-19 0,0 41,0 41,-19"/>
<text text-anchor="middle" x="20.5" y="-7" font-family="Helvetica,sans-Serif" font-size="10.00">main</text>
</a>
</g>
</g>
<!-- Node2&#45;&gt;Node3 -->
<g id="edge2_Node000002_Node000003" class="edge">
<title>Node2&#45;&gt;Node3</title>
<g id="a_edge2_Node000002_Node000003"><a xlink:title=" ">
<path fill="none" stroke="#63b8ff" d="M66.65,-9.5C57.34,-9.5 48.56,-9.5 41.25,-9.5"/>
<polygon fill="#63b8ff" stroke="#63b8ff" points="66.92,-13 76.92,-9.5 66.92,-6 66.92,-13"/>
</a>
</g>
</g>
</g>
</svg>
