<?xml version="1.0" encoding="UTF-8" standalone="no"?>
<!DOCTYPE svg PUBLIC "-//W3C//DTD SVG 1.1//EN"
 "http://www.w3.org/Graphics/SVG/1.1/DTD/svg11.dtd">
<!-- Generated by graphviz version 2.42.4 (0)
 -->
<!-- Title: MutexMPMCQueue::size Pages: 1 -->
<svg width="326pt" height="64pt"
 viewBox="0.00 0.00 326.00 64.00" xmlns="http://www.w3.org/2000/svg" xmlns:xlink="http://www.w3.org/1999/xlink">
<g id="graph0" class="graph" transform="scale(1 1) rotate(0) translate(4 60)">
<title>MutexMPMCQueue::size</title>
<!-- Node1 -->
<g id="Node000001" class="node">
<title>Node1</title>
<g id="a_Node000001"><a xlink:title="Get the current size of the queue.">
<polygon fill="#999999" stroke="#666666" points="318,-37 183,-37 183,-18 318,-18 318,-37"/>
<text text-anchor="middle" x="250.5" y="-25" font-family="Helvetica,sans-Serif" font-size="10.00">MutexMPMCQueue::size</text>
</a>
</g>
</g>
<!-- Node2 -->
<g id="Node000002" class="node">
<title>Node2</title>
<g id="a_Node000002"><a xlink:href="../../d2/d1b/class_mutex_m_p_m_c_queue.html#a868cdd7c22cb1b4ac9caf13b35803ed4" target="_top" xlink:title="Check if the queue is empty.">
<polygon fill="white" stroke="#666666" points="147,-56 0,-56 0,-37 147,-37 147,-56"/>
<text text-anchor="middle" x="73.5" y="-44" font-family="Helvetica,sans-Serif" font-size="10.00">MutexMPMCQueue::empty</text>
</a>
</g>
</g>
<!-- Node1&#45;&gt;Node2 -->
<g id="edge1_Node000001_Node000002" class="edge">
<title>Node1&#45;&gt;Node2</title>
<g id="a_edge1_Node000001_Node000002"><a xlink:title=" ">
<path fill="none" stroke="#63b8ff" d="M172.87,-35.82C164.31,-36.75 155.61,-37.69 147.1,-38.62"/>
<polygon fill="#63b8ff" stroke="#63b8ff" points="173.28,-39.3 182.84,-34.74 172.52,-32.34 173.28,-39.3"/>
</a>
</g>
</g>
<!-- Node3 -->
<g id="Node000003" class="node">
<title>Node3</title>
<g id="a_Node000003"><a xlink:href="../../d2/d1b/class_mutex_m_p_m_c_queue.html#abc2a4e7af8637d55ab91f261a37a8802" target="_top" xlink:title="Check if the queue is full.">
<polygon fill="white" stroke="#666666" points="139,-19 8,-19 8,0 139,0 139,-19"/>
<text text-anchor="middle" x="73.5" y="-7" font-family="Helvetica,sans-Serif" font-size="10.00">MutexMPMCQueue::full</text>
</a>
</g>
</g>
<!-- Node1&#45;&gt;Node3 -->
<g id="edge2_Node000001_Node000003" class="edge">
<title>Node1&#45;&gt;Node3</title>
<g id="a_edge2_Node000001_Node000003"><a xlink:title=" ">
<path fill="none" stroke="#63b8ff" d="M172.68,-19.6C161.52,-18.45 150.13,-17.28 139.24,-16.16"/>
<polygon fill="#63b8ff" stroke="#63b8ff" points="172.54,-23.1 182.84,-20.64 173.25,-16.14 172.54,-23.1"/>
</a>
</g>
</g>
</g>
</svg>
