<?xml version="1.0" encoding="UTF-8" standalone="no"?>
<!DOCTYPE svg PUBLIC "-//W3C//DTD SVG 1.1//EN"
 "http://www.w3.org/Graphics/SVG/1.1/DTD/svg11.dtd">
<!-- Generated by graphviz version 2.42.4 (0)
 -->
<!-- Title: TwoLockMPMCQueue&lt; T &gt;::Node Pages: 1 -->
<svg width="300pt" height="115pt"
 viewBox="0.00 0.00 300.00 115.00" xmlns="http://www.w3.org/2000/svg" xmlns:xlink="http://www.w3.org/1999/xlink">
<g id="graph0" class="graph" transform="scale(1 1) rotate(0) translate(4 111)">
<title>TwoLockMPMCQueue&lt; T &gt;::Node</title>
<!-- Node1 -->
<g id="Node000001" class="node">
<title>Node1</title>
<g id="a_Node000001"><a xlink:title="Node in the linked list queue.">
<polygon fill="#999999" stroke="#666666" points="137,-30 0,-30 0,0 137,0 137,-30"/>
<text text-anchor="start" x="8" y="-18" font-family="Helvetica,sans-Serif" font-size="10.00">TwoLockMPMCQueue&lt; T</text>
<text text-anchor="middle" x="68.5" y="-7" font-family="Helvetica,sans-Serif" font-size="10.00"> &gt;::Node</text>
</a>
</g>
</g>
<!-- Node2 -->
<g id="Node000002" class="node">
<title>Node2</title>
<g id="a_Node000002"><a xlink:title=" ">
<polygon fill="white" stroke="#666666" points="268.5,-107 82.5,-107 82.5,-77 268.5,-77 268.5,-107"/>
<text text-anchor="start" x="90.5" y="-95" font-family="Helvetica,sans-Serif" font-size="10.00">std::atomic&lt; TwoLockMPMCQueue</text>
<text text-anchor="middle" x="175.5" y="-84" font-family="Helvetica,sans-Serif" font-size="10.00">::Node * &gt;</text>
</a>
</g>
</g>
<!-- Node2&#45;&gt;Node1 -->
<g id="edge1_Node000001_Node000002" class="edge">
<title>Node2&#45;&gt;Node1</title>
<g id="a_edge1_Node000001_Node000002"><a xlink:title=" ">
<path fill="none" stroke="#9a32cd" stroke-dasharray="5,2" d="M147.04,-71.05C128.6,-58.13 105.02,-41.6 88.54,-30.04"/>
<polygon fill="#9a32cd" stroke="#9a32cd" points="145.18,-74.02 155.37,-76.89 149.19,-68.29 145.18,-74.02"/>
</a>
</g>
<text text-anchor="middle" x="140" y="-51" font-family="Helvetica,sans-Serif" font-size="10.00" fill="grey"> next</text>
</g>
<!-- Node3 -->
<g id="Node000003" class="node">
<title>Node3</title>
<g id="a_Node000003"><a xlink:href="../../d0/d94/struct_two_lock_m_p_m_c_queue_1_1_node.html" target="_top" xlink:title="Node in the linked list queue.">
<polygon fill="white" stroke="#666666" points="292,-30 155,-30 155,0 292,0 292,-30"/>
<text text-anchor="start" x="163" y="-18" font-family="Helvetica,sans-Serif" font-size="10.00">TwoLockMPMCQueue&lt; T</text>
<text text-anchor="middle" x="223.5" y="-7" font-family="Helvetica,sans-Serif" font-size="10.00"> &gt;::Node</text>
</a>
</g>
</g>
<!-- Node2&#45;&gt;Node3 -->
<g id="edge3_Node000003_Node000002" class="edge">
<title>Node2&#45;&gt;Node3</title>
<g id="a_edge3_Node000003_Node000002"><a xlink:title=" ">
<path fill="none" stroke="#9a32cd" stroke-dasharray="5,2" d="M169.16,-66.71C168.7,-60.31 169.39,-53.62 172.5,-48 176.6,-40.59 183.21,-34.67 190.33,-30.03"/>
<polygon fill="#9a32cd" stroke="#9a32cd" points="165.77,-67.66 170.8,-76.99 172.69,-66.56 165.77,-67.66"/>
</a>
</g>
<text text-anchor="middle" x="185" y="-51" font-family="Helvetica,sans-Serif" font-size="10.00" fill="grey"> next</text>
</g>
<!-- Node3&#45;&gt;Node2 -->
<g id="edge2_Node000002_Node000003" class="edge">
<title>Node3&#45;&gt;Node2</title>
<g id="a_edge2_Node000002_Node000003"><a xlink:title=" ">
<path fill="none" stroke="#9a32cd" stroke-dasharray="5,2" d="M212.64,-39.41C209.33,-45.91 205.5,-52.86 201.5,-59 197.51,-65.12 192.58,-71.44 188.08,-76.83"/>
<polygon fill="#9a32cd" stroke="#9a32cd" points="215.82,-40.88 217.08,-30.36 209.54,-37.79 215.82,-40.88"/>
</a>
</g>
<text text-anchor="middle" x="216" y="-51" font-family="Helvetica,sans-Serif" font-size="10.00" fill="grey"> ptr</text>
</g>
</g>
</svg>
