<?xml version="1.0" encoding="UTF-8" standalone="no"?>
<!DOCTYPE svg PUBLIC "-//W3C//DTD SVG 1.1//EN"
 "http://www.w3.org/Graphics/SVG/1.1/DTD/svg11.dtd">
<!-- Generated by graphviz version 2.42.4 (0)
 -->
<!-- Title: src/benchmark_main.cpp Pages: 1 -->
<svg width="1593pt" height="203pt"
 viewBox="0.00 0.00 1593.00 203.00" xmlns="http://www.w3.org/2000/svg" xmlns:xlink="http://www.w3.org/1999/xlink">
<g id="graph0" class="graph" transform="scale(1 1) rotate(0) translate(4 199)">
<title>src/benchmark_main.cpp</title>
<!-- Node1 -->
<g id="Node000001" class="node">
<title>Node1</title>
<g id="a_Node000001"><a xlink:title="Main benchmark driver for MPMC queue implementations.">
<polygon fill="#999999" stroke="#666666" points="762.5,-195 623.5,-195 623.5,-176 762.5,-176 762.5,-195"/>
<text text-anchor="middle" x="693" y="-183" font-family="Helvetica,sans-Serif" font-size="10.00">src/benchmark_main.cpp</text>
</a>
</g>
</g>
<!-- Node2 -->
<g id="Node000002" class="node">
<title>Node2</title>
<g id="a_Node000002"><a xlink:href="../../d9/dbe/mutex__queue_8h.html" target="_top" xlink:title="Baseline MPMC queue implementation using std::mutex and condition variables.">
<polygon fill="white" stroke="#666666" points="361.5,-134.5 230.5,-134.5 230.5,-115.5 361.5,-115.5 361.5,-134.5"/>
<text text-anchor="middle" x="296" y="-122.5" font-family="Helvetica,sans-Serif" font-size="10.00">queues/mutex_queue.h</text>
</a>
</g>
</g>
<!-- Node1&#45;&gt;Node2 -->
<g id="edge1_Node000001_Node000002" class="edge">
<title>Node1&#45;&gt;Node2</title>
<g id="a_edge1_Node000001_Node000002"><a xlink:title=" ">
<path fill="none" stroke="#63b8ff" d="M627.64,-175.98C563.48,-167.46 462.87,-153.7 376,-140 368.64,-138.84 360.91,-137.56 353.28,-136.26"/>
<polygon fill="#63b8ff" stroke="#63b8ff" points="353.78,-132.8 343.33,-134.56 352.6,-139.7 353.78,-132.8"/>
</a>
</g>
</g>
<!-- Node9 -->
<g id="Node000009" class="node">
<title>Node9</title>
<g id="a_Node000009"><a xlink:href="../../d1/d98/two__lock__queue_8h.html" target="_top" xlink:title="Lock&#45;free MPMC queue implementation using Michael&#45;Scott algorithm.">
<polygon fill="white" stroke="#666666" points="561.5,-134.5 418.5,-134.5 418.5,-115.5 561.5,-115.5 561.5,-134.5"/>
<text text-anchor="middle" x="490" y="-122.5" font-family="Helvetica,sans-Serif" font-size="10.00">queues/two_lock_queue.h</text>
</a>
</g>
</g>
<!-- Node1&#45;&gt;Node9 -->
<g id="edge8_Node000001_Node000009" class="edge">
<title>Node1&#45;&gt;Node9</title>
<g id="a_edge8_Node000001_Node000009"><a xlink:title=" ">
<path fill="none" stroke="#63b8ff" d="M663.48,-175.99C628.08,-165.79 568.6,-148.65 529.32,-137.33"/>
<polygon fill="#63b8ff" stroke="#63b8ff" points="530.13,-133.92 519.55,-134.52 528.19,-140.65 530.13,-133.92"/>
</a>
</g>
</g>
<!-- Node10 -->
<g id="Node000010" class="node">
<title>Node10</title>
<g id="a_Node000010"><a xlink:title=" ">
<polygon fill="#e0e0e0" stroke="#999999" points="398,-74 340,-74 340,-55 398,-55 398,-74"/>
<text text-anchor="middle" x="369" y="-62" font-family="Helvetica,sans-Serif" font-size="10.00">memory</text>
</a>
</g>
</g>
<!-- Node1&#45;&gt;Node10 -->
<g id="edge37_Node000001_Node000010" class="edge">
<title>Node1&#45;&gt;Node10</title>
<g id="a_edge37_Node000001_Node000010"><a xlink:title=" ">
<path fill="none" stroke="#63b8ff" d="M623.26,-180.63C550.53,-175.38 442.54,-163.78 409,-140 390.14,-126.63 379.34,-101.51 373.83,-84.16"/>
<polygon fill="#63b8ff" stroke="#63b8ff" points="377.06,-82.73 370.94,-74.08 370.33,-84.66 377.06,-82.73"/>
</a>
</g>
</g>
<!-- Node12 -->
<g id="Node000012" class="node">
<title>Node12</title>
<g id="a_Node000012"><a xlink:href="../../d5/da8/ring__buffer__queue_8h.html" target="_top" xlink:title="High&#45;performance bounded MPMC ring buffer queue.">
<polygon fill="white" stroke="#666666" points="686.5,-140 579.5,-140 579.5,-110 686.5,-110 686.5,-140"/>
<text text-anchor="start" x="587.5" y="-128" font-family="Helvetica,sans-Serif" font-size="10.00">queues/ring_buffer</text>
<text text-anchor="middle" x="633" y="-117" font-family="Helvetica,sans-Serif" font-size="10.00">_queue.h</text>
</a>
</g>
</g>
<!-- Node1&#45;&gt;Node12 -->
<g id="edge13_Node000001_Node000012" class="edge">
<title>Node1&#45;&gt;Node12</title>
<g id="a_edge13_Node000001_Node000012"><a xlink:title=" ">
<path fill="none" stroke="#63b8ff" d="M684.15,-175.87C676.46,-168.37 665,-157.2 654.87,-147.33"/>
<polygon fill="#63b8ff" stroke="#63b8ff" points="657.08,-144.59 647.48,-140.11 652.19,-149.6 657.08,-144.59"/>
</a>
</g>
</g>
<!-- Node15 -->
<g id="Node000015" class="node">
<title>Node15</title>
<g id="a_Node000015"><a xlink:href="../../d9/d17/benchmark__harness_8h.html" target="_top" xlink:title="Benchmark harness for MPMC queue implementations with LTTng tracing.">
<polygon fill="white" stroke="#666666" points="905,-134.5 781,-134.5 781,-115.5 905,-115.5 905,-134.5"/>
<text text-anchor="middle" x="843" y="-122.5" font-family="Helvetica,sans-Serif" font-size="10.00">benchmark_harness.h</text>
</a>
</g>
</g>
<!-- Node1&#45;&gt;Node15 -->
<g id="edge19_Node000001_Node000015" class="edge">
<title>Node1&#45;&gt;Node15</title>
<g id="a_edge19_Node000001_Node000015"><a xlink:title=" ">
<path fill="none" stroke="#63b8ff" d="M714.81,-175.99C740.25,-166.07 782.51,-149.59 811.51,-138.28"/>
<polygon fill="#63b8ff" stroke="#63b8ff" points="813.12,-141.41 821.16,-134.52 810.57,-134.89 813.12,-141.41"/>
</a>
</g>
</g>
<!-- Node21 -->
<g id="Node000021" class="node">
<title>Node21</title>
<g id="a_Node000021"><a xlink:title=" ">
<polygon fill="#e0e0e0" stroke="#999999" points="800,-74 740,-74 740,-55 800,-55 800,-74"/>
<text text-anchor="middle" x="770" y="-62" font-family="Helvetica,sans-Serif" font-size="10.00">iostream</text>
</a>
</g>
</g>
<!-- Node1&#45;&gt;Node21 -->
<g id="edge35_Node000001_Node000021" class="edge">
<title>Node1&#45;&gt;Node21</title>
<g id="a_edge35_Node000001_Node000021"><a xlink:title=" ">
<path fill="none" stroke="#63b8ff" d="M698.54,-175.94C711.13,-156.48 742.11,-108.6 758.84,-82.74"/>
<polygon fill="#63b8ff" stroke="#63b8ff" points="761.81,-84.6 764.3,-74.3 755.93,-80.8 761.81,-84.6"/>
</a>
</g>
</g>
<!-- Node28 -->
<g id="Node000028" class="node">
<title>Node28</title>
<g id="a_Node000028"><a xlink:title=" ">
<polygon fill="#e0e0e0" stroke="#999999" points="980.5,-134.5 923.5,-134.5 923.5,-115.5 980.5,-115.5 980.5,-134.5"/>
<text text-anchor="middle" x="952" y="-122.5" font-family="Helvetica,sans-Serif" font-size="10.00">getopt.h</text>
</a>
</g>
</g>
<!-- Node1&#45;&gt;Node28 -->
<g id="edge36_Node000001_Node000028" class="edge">
<title>Node1&#45;&gt;Node28</title>
<g id="a_edge36_Node000001_Node000028"><a xlink:title=" ">
<path fill="none" stroke="#63b8ff" d="M747.6,-175.92C792.67,-168.27 858.08,-155.83 914,-140 916.28,-139.35 918.62,-138.63 920.97,-137.87"/>
<polygon fill="#63b8ff" stroke="#63b8ff" points="922.18,-141.16 930.49,-134.58 919.89,-134.54 922.18,-141.16"/>
</a>
</g>
</g>
<!-- Node29 -->
<g id="Node000029" class="node">
<title>Node29</title>
<g id="a_Node000029"><a xlink:title=" ">
<polygon fill="#e0e0e0" stroke="#999999" points="1047.5,-134.5 998.5,-134.5 998.5,-115.5 1047.5,-115.5 1047.5,-134.5"/>
<text text-anchor="middle" x="1023" y="-122.5" font-family="Helvetica,sans-Serif" font-size="10.00">cstdlib</text>
</a>
</g>
</g>
<!-- Node1&#45;&gt;Node29 -->
<g id="edge38_Node000001_Node000029" class="edge">
<title>Node1&#45;&gt;Node29</title>
<g id="a_edge38_Node000001_Node000029"><a xlink:title=" ">
<path fill="none" stroke="#63b8ff" d="M762.76,-179.06C823.62,-173.13 913.85,-161.48 990,-140 991.89,-139.47 993.81,-138.85 995.73,-138.19"/>
<polygon fill="#63b8ff" stroke="#63b8ff" points="997.08,-141.42 1005.14,-134.54 994.55,-134.89 997.08,-141.42"/>
</a>
</g>
</g>
<!-- Node3 -->
<g id="Node000003" class="node">
<title>Node3</title>
<g id="a_Node000003"><a xlink:title=" ">
<polygon fill="#e0e0e0" stroke="#999999" points="321.5,-74 274.5,-74 274.5,-55 321.5,-55 321.5,-74"/>
<text text-anchor="middle" x="298" y="-62" font-family="Helvetica,sans-Serif" font-size="10.00">queue</text>
</a>
</g>
</g>
<!-- Node2&#45;&gt;Node3 -->
<g id="edge2_Node000002_Node000003" class="edge">
<title>Node2&#45;&gt;Node3</title>
<g id="a_edge2_Node000002_Node000003"><a xlink:title=" ">
<path fill="none" stroke="#63b8ff" d="M296.3,-115.37C296.57,-107.25 297,-94.81 297.35,-84.39"/>
<polygon fill="#63b8ff" stroke="#63b8ff" points="300.86,-84.28 297.7,-74.17 293.86,-84.04 300.86,-84.28"/>
</a>
</g>
</g>
<!-- Node4 -->
<g id="Node000004" class="node">
<title>Node4</title>
<g id="a_Node000004"><a xlink:title=" ">
<polygon fill="#e0e0e0" stroke="#999999" points="48,-74 0,-74 0,-55 48,-55 48,-74"/>
<text text-anchor="middle" x="24" y="-62" font-family="Helvetica,sans-Serif" font-size="10.00">mutex</text>
</a>
</g>
</g>
<!-- Node2&#45;&gt;Node4 -->
<g id="edge3_Node000002_Node000004" class="edge">
<title>Node2&#45;&gt;Node4</title>
<g id="a_edge3_Node000002_Node000004"><a xlink:title=" ">
<path fill="none" stroke="#63b8ff" d="M252.26,-115.47C206.29,-106.38 131.67,-91.21 58.03,-74.16"/>
<polygon fill="#63b8ff" stroke="#63b8ff" points="58.65,-70.71 48.12,-71.85 57.06,-77.53 58.65,-70.71"/>
</a>
</g>
</g>
<!-- Node5 -->
<g id="Node000005" class="node">
<title>Node5</title>
<g id="a_Node000005"><a xlink:title=" ">
<polygon fill="#e0e0e0" stroke="#999999" points="173.5,-74 66.5,-74 66.5,-55 173.5,-55 173.5,-74"/>
<text text-anchor="middle" x="120" y="-62" font-family="Helvetica,sans-Serif" font-size="10.00">condition_variable</text>
</a>
</g>
</g>
<!-- Node2&#45;&gt;Node5 -->
<g id="edge4_Node000002_Node000005" class="edge">
<title>Node2&#45;&gt;Node5</title>
<g id="a_edge4_Node000002_Node000005"><a xlink:title=" ">
<path fill="none" stroke="#63b8ff" d="M270.41,-115.49C240.04,-105.4 189.24,-88.51 155.18,-77.19"/>
<polygon fill="#63b8ff" stroke="#63b8ff" points="156.22,-73.85 145.62,-74.02 154.01,-80.49 156.22,-73.85"/>
</a>
</g>
</g>
<!-- Node6 -->
<g id="Node000006" class="node">
<title>Node6</title>
<g id="a_Node000006"><a xlink:title=" ">
<polygon fill="#e0e0e0" stroke="#999999" points="256.5,-74 191.5,-74 191.5,-55 256.5,-55 256.5,-74"/>
<text text-anchor="middle" x="224" y="-62" font-family="Helvetica,sans-Serif" font-size="10.00">stdexcept</text>
</a>
</g>
</g>
<!-- Node2&#45;&gt;Node6 -->
<g id="edge5_Node000002_Node000006" class="edge">
<title>Node2&#45;&gt;Node6</title>
<g id="a_edge5_Node000002_Node000006"><a xlink:title=" ">
<path fill="none" stroke="#63b8ff" d="M285.38,-115.37C274.1,-106.21 256.08,-91.56 242.47,-80.51"/>
<polygon fill="#63b8ff" stroke="#63b8ff" points="244.64,-77.76 234.67,-74.17 240.22,-83.19 244.64,-77.76"/>
</a>
</g>
</g>
<!-- Node7 -->
<g id="Node000007" class="node">
<title>Node7</title>
<g id="a_Node000007"><a xlink:title=" ">
<polygon fill="#e0e0e0" stroke="#999999" points="534,-74 484,-74 484,-55 534,-55 534,-74"/>
<text text-anchor="middle" x="509" y="-62" font-family="Helvetica,sans-Serif" font-size="10.00">atomic</text>
</a>
</g>
</g>
<!-- Node2&#45;&gt;Node7 -->
<g id="edge6_Node000002_Node000007" class="edge">
<title>Node2&#45;&gt;Node7</title>
<g id="a_edge6_Node000002_Node000007"><a xlink:title=" ">
<path fill="none" stroke="#63b8ff" d="M326.97,-115.49C366.12,-104.74 433.3,-86.29 474.19,-75.06"/>
<polygon fill="#63b8ff" stroke="#63b8ff" points="475.26,-78.4 483.98,-72.37 473.41,-71.65 475.26,-78.4"/>
</a>
</g>
</g>
<!-- Node8 -->
<g id="Node000008" class="node">
<title>Node8</title>
<g id="a_Node000008"><a xlink:title=" ">
<polygon fill="#e0e0e0" stroke="#999999" points="466,-74 416,-74 416,-55 466,-55 466,-74"/>
<text text-anchor="middle" x="441" y="-62" font-family="Helvetica,sans-Serif" font-size="10.00">cstdint</text>
</a>
</g>
</g>
<!-- Node2&#45;&gt;Node8 -->
<g id="edge7_Node000002_Node000008" class="edge">
<title>Node2&#45;&gt;Node8</title>
<g id="a_edge7_Node000002_Node000008"><a xlink:title=" ">
<path fill="none" stroke="#63b8ff" d="M317.08,-115.49C341.68,-105.57 382.53,-89.09 410.56,-77.78"/>
<polygon fill="#63b8ff" stroke="#63b8ff" points="411.93,-81 419.89,-74.02 409.31,-74.51 411.93,-81"/>
</a>
</g>
</g>
<!-- Node9&#45;&gt;Node7 -->
<g id="edge9_Node000009_Node000007" class="edge">
<title>Node9&#45;&gt;Node7</title>
<g id="a_edge9_Node000009_Node000007"><a xlink:title=" ">
<path fill="none" stroke="#63b8ff" d="M492.8,-115.37C495.5,-107.07 499.65,-94.28 503.08,-83.72"/>
<polygon fill="#63b8ff" stroke="#63b8ff" points="506.42,-84.76 506.18,-74.17 499.77,-82.6 506.42,-84.76"/>
</a>
</g>
</g>
<!-- Node9&#45;&gt;Node8 -->
<g id="edge11_Node000009_Node000008" class="edge">
<title>Node9&#45;&gt;Node8</title>
<g id="a_edge11_Node000009_Node000008"><a xlink:title=" ">
<path fill="none" stroke="#63b8ff" d="M482.77,-115.37C475.46,-106.64 463.98,-92.93 454.9,-82.09"/>
<polygon fill="#63b8ff" stroke="#63b8ff" points="457.36,-79.59 448.26,-74.17 452,-84.08 457.36,-79.59"/>
</a>
</g>
</g>
<!-- Node9&#45;&gt;Node10 -->
<g id="edge10_Node000009_Node000010" class="edge">
<title>Node9&#45;&gt;Node10</title>
<g id="a_edge10_Node000009_Node000010"><a xlink:title=" ">
<path fill="none" stroke="#63b8ff" d="M472.41,-115.49C452.24,-105.75 418.98,-89.66 395.64,-78.38"/>
<polygon fill="#63b8ff" stroke="#63b8ff" points="397.14,-75.22 386.62,-74.02 394.1,-81.52 397.14,-75.22"/>
</a>
</g>
</g>
<!-- Node11 -->
<g id="Node000011" class="node">
<title>Node11</title>
<g id="a_Node000011"><a xlink:title=" ">
<polygon fill="#e0e0e0" stroke="#999999" points="656,-74 608,-74 608,-55 656,-55 656,-74"/>
<text text-anchor="middle" x="632" y="-62" font-family="Helvetica,sans-Serif" font-size="10.00">thread</text>
</a>
</g>
</g>
<!-- Node9&#45;&gt;Node11 -->
<g id="edge12_Node000009_Node000011" class="edge">
<title>Node9&#45;&gt;Node11</title>
<g id="a_edge12_Node000009_Node000011"><a xlink:title=" ">
<path fill="none" stroke="#63b8ff" d="M510.65,-115.49C534.63,-105.62 574.39,-89.23 601.83,-77.93"/>
<polygon fill="#63b8ff" stroke="#63b8ff" points="603.41,-81.06 611.33,-74.02 600.75,-74.59 603.41,-81.06"/>
</a>
</g>
</g>
<!-- Node12&#45;&gt;Node7 -->
<g id="edge14_Node000012_Node000007" class="edge">
<title>Node12&#45;&gt;Node7</title>
<g id="a_edge14_Node000012_Node000007"><a xlink:title=" ">
<path fill="none" stroke="#63b8ff" d="M603.3,-109.99C582.98,-100.4 556.24,-87.79 536.42,-78.44"/>
<polygon fill="#63b8ff" stroke="#63b8ff" points="537.85,-75.24 527.31,-74.14 534.86,-81.57 537.85,-75.24"/>
</a>
</g>
</g>
<!-- Node12&#45;&gt;Node8 -->
<g id="edge16_Node000012_Node000008" class="edge">
<title>Node12&#45;&gt;Node8</title>
<g id="a_edge16_Node000012_Node000008"><a xlink:title=" ">
<path fill="none" stroke="#63b8ff" d="M587.01,-109.99C552.92,-99.6 507.16,-85.66 476.02,-76.17"/>
<polygon fill="#63b8ff" stroke="#63b8ff" points="476.64,-72.7 466.05,-73.13 474.6,-79.4 476.64,-72.7"/>
</a>
</g>
</g>
<!-- Node12&#45;&gt;Node11 -->
<g id="edge17_Node000012_Node000011" class="edge">
<title>Node12&#45;&gt;Node11</title>
<g id="a_edge17_Node000012_Node000011"><a xlink:title=" ">
<path fill="none" stroke="#63b8ff" d="M632.76,-109.84C632.63,-102.21 632.47,-92.7 632.32,-84.45"/>
<polygon fill="#63b8ff" stroke="#63b8ff" points="635.82,-84.2 632.15,-74.27 628.82,-84.32 635.82,-84.2"/>
</a>
</g>
</g>
<!-- Node13 -->
<g id="Node000013" class="node">
<title>Node13</title>
<g id="a_Node000013"><a xlink:title=" ">
<polygon fill="#e0e0e0" stroke="#999999" points="721.5,-74 674.5,-74 674.5,-55 721.5,-55 721.5,-74"/>
<text text-anchor="middle" x="698" y="-62" font-family="Helvetica,sans-Serif" font-size="10.00">vector</text>
</a>
</g>
</g>
<!-- Node12&#45;&gt;Node13 -->
<g id="edge15_Node000012_Node000013" class="edge">
<title>Node12&#45;&gt;Node13</title>
<g id="a_edge15_Node000012_Node000013"><a xlink:title=" ">
<path fill="none" stroke="#63b8ff" d="M648.73,-109.84C658.36,-101.17 670.69,-90.08 680.61,-81.15"/>
<polygon fill="#63b8ff" stroke="#63b8ff" points="683.17,-83.56 688.26,-74.27 678.49,-78.35 683.17,-83.56"/>
</a>
</g>
</g>
<!-- Node14 -->
<g id="Node000014" class="node">
<title>Node14</title>
<g id="a_Node000014"><a xlink:title=" ">
<polygon fill="#e0e0e0" stroke="#999999" points="589.5,-74 552.5,-74 552.5,-55 589.5,-55 589.5,-74"/>
<text text-anchor="middle" x="571" y="-62" font-family="Helvetica,sans-Serif" font-size="10.00">new</text>
</a>
</g>
</g>
<!-- Node12&#45;&gt;Node14 -->
<g id="edge18_Node000012_Node000014" class="edge">
<title>Node12&#45;&gt;Node14</title>
<g id="a_edge18_Node000012_Node000014"><a xlink:title=" ">
<path fill="none" stroke="#63b8ff" d="M617.99,-109.84C608.81,-101.17 597.05,-90.08 587.59,-81.15"/>
<polygon fill="#63b8ff" stroke="#63b8ff" points="589.97,-78.58 580.29,-74.27 585.16,-83.67 589.97,-78.58"/>
</a>
</g>
</g>
<!-- Node15&#45;&gt;Node7 -->
<g id="edge27_Node000015_Node000007" class="edge">
<title>Node15&#45;&gt;Node7</title>
<g id="a_edge27_Node000015_Node000007"><a xlink:title=" ">
<path fill="none" stroke="#63b8ff" d="M783.26,-115.48C724.72,-106.81 632.78,-92.32 544.15,-74.1"/>
<polygon fill="#63b8ff" stroke="#63b8ff" points="544.7,-70.64 534.2,-72.04 543.28,-77.5 544.7,-70.64"/>
</a>
</g>
</g>
<!-- Node15&#45;&gt;Node11 -->
<g id="edge25_Node000015_Node000011" class="edge">
<title>Node15&#45;&gt;Node11</title>
<g id="a_edge25_Node000015_Node000011"><a xlink:title=" ">
<path fill="none" stroke="#63b8ff" d="M812.32,-115.49C773.33,-104.68 706.26,-86.09 665.83,-74.88"/>
<polygon fill="#63b8ff" stroke="#63b8ff" points="666.73,-71.5 656.16,-72.2 664.86,-78.24 666.73,-71.5"/>
</a>
</g>
</g>
<!-- Node15&#45;&gt;Node13 -->
<g id="edge26_Node000015_Node000013" class="edge">
<title>Node15&#45;&gt;Node13</title>
<g id="a_edge26_Node000015_Node000013"><a xlink:title=" ">
<path fill="none" stroke="#63b8ff" d="M821.92,-115.49C797.32,-105.57 756.47,-89.09 728.44,-77.78"/>
<polygon fill="#63b8ff" stroke="#63b8ff" points="729.69,-74.51 719.11,-74.02 727.07,-81 729.69,-74.51"/>
</a>
</g>
</g>
<!-- Node16 -->
<g id="Node000016" class="node">
<title>Node16</title>
<g id="a_Node000016"><a xlink:href="../../d1/d2f/benchmark__mpmc__tp_8h.html" target="_top" xlink:title="LTTng&#45;UST tracepoint definitions for MPMC queue benchmarking.">
<polygon fill="white" stroke="#666666" points="1473.5,-74 1342.5,-74 1342.5,-55 1473.5,-55 1473.5,-74"/>
<text text-anchor="middle" x="1408" y="-62" font-family="Helvetica,sans-Serif" font-size="10.00">benchmark_mpmc_tp.h</text>
</a>
</g>
</g>
<!-- Node15&#45;&gt;Node16 -->
<g id="edge20_Node000015_Node000016" class="edge">
<title>Node15&#45;&gt;Node16</title>
<g id="a_edge20_Node000015_Node000016"><a xlink:title=" ">
<path fill="none" stroke="#63b8ff" d="M882.86,-115.47C893.28,-113.45 904.53,-111.46 915,-110 1096.42,-84.62 1145.73,-92.22 1332.03,-74.06"/>
<polygon fill="#63b8ff" stroke="#63b8ff" points="1332.55,-77.53 1342.16,-73.06 1331.87,-70.56 1332.55,-77.53"/>
</a>
</g>
</g>
<!-- Node20 -->
<g id="Node000020" class="node">
<title>Node20</title>
<g id="a_Node000020"><a xlink:title=" ">
<polygon fill="#e0e0e0" stroke="#999999" points="868,-74 818,-74 818,-55 868,-55 868,-74"/>
<text text-anchor="middle" x="843" y="-62" font-family="Helvetica,sans-Serif" font-size="10.00">chrono</text>
</a>
</g>
</g>
<!-- Node15&#45;&gt;Node20 -->
<g id="edge24_Node000015_Node000020" class="edge">
<title>Node15&#45;&gt;Node20</title>
<g id="a_edge24_Node000015_Node000020"><a xlink:title=" ">
<path fill="none" stroke="#63b8ff" d="M843,-115.37C843,-107.25 843,-94.81 843,-84.39"/>
<polygon fill="#63b8ff" stroke="#63b8ff" points="846.5,-84.17 843,-74.17 839.5,-84.17 846.5,-84.17"/>
</a>
</g>
</g>
<!-- Node15&#45;&gt;Node21 -->
<g id="edge28_Node000015_Node000021" class="edge">
<title>Node15&#45;&gt;Node21</title>
<g id="a_edge28_Node000015_Node000021"><a xlink:title=" ">
<path fill="none" stroke="#63b8ff" d="M832.23,-115.37C820.8,-106.21 802.52,-91.56 788.72,-80.51"/>
<polygon fill="#63b8ff" stroke="#63b8ff" points="790.81,-77.69 780.82,-74.17 786.43,-83.15 790.81,-77.69"/>
</a>
</g>
</g>
<!-- Node22 -->
<g id="Node000022" class="node">
<title>Node22</title>
<g id="a_Node000022"><a xlink:title=" ">
<polygon fill="#e0e0e0" stroke="#999999" points="942,-74 886,-74 886,-55 942,-55 942,-74"/>
<text text-anchor="middle" x="914" y="-62" font-family="Helvetica,sans-Serif" font-size="10.00">iomanip</text>
</a>
</g>
</g>
<!-- Node15&#45;&gt;Node22 -->
<g id="edge29_Node000015_Node000022" class="edge">
<title>Node15&#45;&gt;Node22</title>
<g id="a_edge29_Node000015_Node000022"><a xlink:title=" ">
<path fill="none" stroke="#63b8ff" d="M853.48,-115.37C864.49,-106.3 882.04,-91.84 895.41,-80.82"/>
<polygon fill="#63b8ff" stroke="#63b8ff" points="897.99,-83.23 903.48,-74.17 893.54,-77.83 897.99,-83.23"/>
</a>
</g>
</g>
<!-- Node23 -->
<g id="Node000023" class="node">
<title>Node23</title>
<g id="a_Node000023"><a xlink:title=" ">
<polygon fill="#e0e0e0" stroke="#999999" points="1016,-74 960,-74 960,-55 1016,-55 1016,-74"/>
<text text-anchor="middle" x="988" y="-62" font-family="Helvetica,sans-Serif" font-size="10.00">sstream</text>
</a>
</g>
</g>
<!-- Node15&#45;&gt;Node23 -->
<g id="edge30_Node000015_Node000023" class="edge">
<title>Node15&#45;&gt;Node23</title>
<g id="a_edge30_Node000015_Node000023"><a xlink:title=" ">
<path fill="none" stroke="#63b8ff" d="M864.08,-115.49C888.68,-105.57 929.53,-89.09 957.56,-77.78"/>
<polygon fill="#63b8ff" stroke="#63b8ff" points="958.93,-81 966.89,-74.02 956.31,-74.51 958.93,-81"/>
</a>
</g>
</g>
<!-- Node24 -->
<g id="Node000024" class="node">
<title>Node24</title>
<g id="a_Node000024"><a xlink:title=" ">
<polygon fill="#e0e0e0" stroke="#999999" points="1098,-74 1034,-74 1034,-55 1098,-55 1098,-74"/>
<text text-anchor="middle" x="1066" y="-62" font-family="Helvetica,sans-Serif" font-size="10.00">algorithm</text>
</a>
</g>
</g>
<!-- Node15&#45;&gt;Node24 -->
<g id="edge31_Node000015_Node000024" class="edge">
<title>Node15&#45;&gt;Node24</title>
<g id="a_edge31_Node000015_Node000024"><a xlink:title=" ">
<path fill="none" stroke="#63b8ff" d="M875.43,-115.49C914.68,-105.2 980.87,-87.83 1024,-76.52"/>
<polygon fill="#63b8ff" stroke="#63b8ff" points="1025.11,-79.84 1033.9,-73.92 1023.34,-73.07 1025.11,-79.84"/>
</a>
</g>
</g>
<!-- Node25 -->
<g id="Node000025" class="node">
<title>Node25</title>
<g id="a_Node000025"><a xlink:title=" ">
<polygon fill="#e0e0e0" stroke="#999999" points="1172,-74 1116,-74 1116,-55 1172,-55 1172,-74"/>
<text text-anchor="middle" x="1144" y="-62" font-family="Helvetica,sans-Serif" font-size="10.00">numeric</text>
</a>
</g>
</g>
<!-- Node15&#45;&gt;Node25 -->
<g id="edge32_Node000015_Node000025" class="edge">
<title>Node15&#45;&gt;Node25</title>
<g id="a_edge32_Node000015_Node000025"><a xlink:title=" ">
<path fill="none" stroke="#63b8ff" d="M886.78,-115.44C896.09,-113.63 905.87,-111.74 915,-110 997.2,-94.3 1020.35,-91.89 1105.86,-74.17"/>
<polygon fill="#63b8ff" stroke="#63b8ff" points="1106.67,-77.58 1115.74,-72.12 1105.24,-70.73 1106.67,-77.58"/>
</a>
</g>
</g>
<!-- Node26 -->
<g id="Node000026" class="node">
<title>Node26</title>
<g id="a_Node000026"><a xlink:title=" ">
<polygon fill="#e0e0e0" stroke="#999999" points="1247.5,-74 1190.5,-74 1190.5,-55 1247.5,-55 1247.5,-74"/>
<text text-anchor="middle" x="1219" y="-62" font-family="Helvetica,sans-Serif" font-size="10.00">typeinfo</text>
</a>
</g>
</g>
<!-- Node15&#45;&gt;Node26 -->
<g id="edge33_Node000015_Node000026" class="edge">
<title>Node15&#45;&gt;Node26</title>
<g id="a_edge33_Node000015_Node000026"><a xlink:title=" ">
<path fill="none" stroke="#63b8ff" d="M884.81,-115.45C894.69,-113.55 905.2,-111.61 915,-110 1029.49,-91.14 1061.82,-94.82 1180.23,-73.98"/>
<polygon fill="#63b8ff" stroke="#63b8ff" points="1181.19,-77.37 1190.42,-72.17 1179.96,-70.48 1181.19,-77.37"/>
</a>
</g>
</g>
<!-- Node27 -->
<g id="Node000027" class="node">
<title>Node27</title>
<g id="a_Node000027"><a xlink:title=" ">
<polygon fill="#e0e0e0" stroke="#999999" points="1324,-74 1266,-74 1266,-55 1324,-55 1324,-74"/>
<text text-anchor="middle" x="1295" y="-62" font-family="Helvetica,sans-Serif" font-size="10.00">cxxabi.h</text>
</a>
</g>
</g>
<!-- Node15&#45;&gt;Node27 -->
<g id="edge34_Node000015_Node000027" class="edge">
<title>Node15&#45;&gt;Node27</title>
<g id="a_edge34_Node000015_Node000027"><a xlink:title=" ">
<path fill="none" stroke="#63b8ff" d="M883.64,-115.46C893.84,-113.49 904.8,-111.53 915,-110 1062.91,-87.88 1104.4,-98.25 1255.49,-74.07"/>
<polygon fill="#63b8ff" stroke="#63b8ff" points="1256.3,-77.48 1265.61,-72.43 1255.17,-70.58 1256.3,-77.48"/>
</a>
</g>
</g>
<!-- Node17 -->
<g id="Node000017" class="node">
<title>Node17</title>
<g id="a_Node000017"><a xlink:title=" ">
<polygon fill="#e0e0e0" stroke="#999999" points="1363.5,-19 1262.5,-19 1262.5,0 1363.5,0 1363.5,-19"/>
<text text-anchor="middle" x="1313" y="-7" font-family="Helvetica,sans-Serif" font-size="10.00">lttng/tracepoint.h</text>
</a>
</g>
</g>
<!-- Node16&#45;&gt;Node17 -->
<g id="edge21_Node000016_Node000017" class="edge">
<title>Node16&#45;&gt;Node17</title>
<g id="a_edge21_Node000016_Node000017"><a xlink:title=" ">
<path fill="none" stroke="#63b8ff" d="M1392.74,-54.98C1377.87,-46.69 1355.02,-33.94 1337.58,-24.22"/>
<polygon fill="#63b8ff" stroke="#63b8ff" points="1338.98,-20.99 1328.54,-19.17 1335.57,-27.1 1338.98,-20.99"/>
</a>
</g>
</g>
<!-- Node18 -->
<g id="Node000018" class="node">
<title>Node18</title>
<g id="a_Node000018"><a xlink:title=" ">
<polygon fill="#e0e0e0" stroke="#999999" points="1434.5,-19 1381.5,-19 1381.5,0 1434.5,0 1434.5,-19"/>
<text text-anchor="middle" x="1408" y="-7" font-family="Helvetica,sans-Serif" font-size="10.00">stdint.h</text>
</a>
</g>
</g>
<!-- Node16&#45;&gt;Node18 -->
<g id="edge22_Node000016_Node000018" class="edge">
<title>Node16&#45;&gt;Node18</title>
<g id="a_edge22_Node000016_Node000018"><a xlink:title=" ">
<path fill="none" stroke="#63b8ff" d="M1408,-54.75C1408,-47.8 1408,-37.85 1408,-29.13"/>
<polygon fill="#63b8ff" stroke="#63b8ff" points="1411.5,-29.09 1408,-19.09 1404.5,-29.09 1411.5,-29.09"/>
</a>
</g>
</g>
<!-- Node19 -->
<g id="Node000019" class="node">
<title>Node19</title>
<g id="a_Node000019"><a xlink:title=" ">
<polygon fill="#e0e0e0" stroke="#999999" points="1585,-19 1453,-19 1453,0 1585,0 1585,-19"/>
<text text-anchor="middle" x="1519" y="-7" font-family="Helvetica,sans-Serif" font-size="10.00">lttng/tracepoint&#45;event.h</text>
</a>
</g>
</g>
<!-- Node16&#45;&gt;Node19 -->
<g id="edge23_Node000016_Node000019" class="edge">
<title>Node16&#45;&gt;Node19</title>
<g id="a_edge23_Node000016_Node000019"><a xlink:title=" ">
<path fill="none" stroke="#63b8ff" d="M1425.83,-54.98C1443.61,-46.5 1471.15,-33.35 1491.68,-23.54"/>
<polygon fill="#63b8ff" stroke="#63b8ff" points="1493.33,-26.64 1500.84,-19.17 1490.31,-20.32 1493.33,-26.64"/>
</a>
</g>
</g>
</g>
</svg>
