<?xml version="1.0" encoding="UTF-8" standalone="no"?>
<!DOCTYPE svg PUBLIC "-//W3C//DTD SVG 1.1//EN"
 "http://www.w3.org/Graphics/SVG/1.1/DTD/svg11.dtd">
<!-- Generated by graphviz version 2.42.4 (0)
 -->
<!-- Title: TwoLockMPMCQueue&lt; T &gt; Pages: 1 -->
<svg width="312pt" height="126pt"
 viewBox="0.00 0.00 312.00 126.00" xmlns="http://www.w3.org/2000/svg" xmlns:xlink="http://www.w3.org/1999/xlink">
<g id="graph0" class="graph" transform="scale(1 1) rotate(0) translate(4 122)">
<title>TwoLockMPMCQueue&lt; T &gt;</title>
<!-- Node1 -->
<g id="Node000001" class="node">
<title>Node1</title>
<g id="a_Node000001"><a xlink:title="Lock&#45;free MPMC queue using Michael&#45;Scott algorithm.">
<polygon fill="#999999" stroke="#666666" points="149,-24.5 0,-24.5 0,-5.5 149,-5.5 149,-24.5"/>
<text text-anchor="middle" x="74.5" y="-12.5" font-family="Helvetica,sans-Serif" font-size="10.00">TwoLockMPMCQueue&lt; T &gt;</text>
</a>
</g>
</g>
<!-- Node2 -->
<g id="Node000002" class="node">
<title>Node2</title>
<g id="a_Node000002"><a xlink:title=" ">
<polygon fill="white" stroke="#666666" points="280.5,-118 94.5,-118 94.5,-88 280.5,-88 280.5,-118"/>
<text text-anchor="start" x="102.5" y="-106" font-family="Helvetica,sans-Serif" font-size="10.00">std::atomic&lt; TwoLockMPMCQueue</text>
<text text-anchor="middle" x="187.5" y="-95" font-family="Helvetica,sans-Serif" font-size="10.00">::Node * &gt;</text>
</a>
</g>
</g>
<!-- Node2&#45;&gt;Node1 -->
<g id="edge1_Node000001_Node000002" class="edge">
<title>Node2&#45;&gt;Node1</title>
<g id="a_edge1_Node000001_Node000002"><a xlink:title=" ">
<path fill="none" stroke="#9a32cd" stroke-dasharray="5,2" d="M158.83,-81.95C153.37,-78.04 147.73,-73.93 142.5,-70 121.77,-54.42 98.2,-35.4 84.96,-24.59"/>
<polygon fill="#9a32cd" stroke="#9a32cd" points="157,-84.95 167.17,-87.89 161.05,-79.24 157,-84.95"/>
</a>
</g>
<text text-anchor="middle" x="159" y="-62" font-family="Helvetica,sans-Serif" font-size="10.00" fill="grey"> head_</text>
<text text-anchor="middle" x="159" y="-51" font-family="Helvetica,sans-Serif" font-size="10.00" fill="grey">tail_</text>
</g>
<!-- Node3 -->
<g id="Node000003" class="node">
<title>Node3</title>
<g id="a_Node000003"><a xlink:href="../../d0/d94/struct_two_lock_m_p_m_c_queue_1_1_node.html" target="_top" xlink:title="Node in the linked list queue.">
<polygon fill="white" stroke="#666666" points="304,-30 167,-30 167,0 304,0 304,-30"/>
<text text-anchor="start" x="175" y="-18" font-family="Helvetica,sans-Serif" font-size="10.00">TwoLockMPMCQueue&lt; T</text>
<text text-anchor="middle" x="235.5" y="-7" font-family="Helvetica,sans-Serif" font-size="10.00"> &gt;::Node</text>
</a>
</g>
</g>
<!-- Node2&#45;&gt;Node3 -->
<g id="edge3_Node000003_Node000002" class="edge">
<title>Node2&#45;&gt;Node3</title>
<g id="a_edge3_Node000003_Node000002"><a xlink:title=" ">
<path fill="none" stroke="#9a32cd" stroke-dasharray="5,2" d="M180.76,-77.81C179.36,-68.01 179.56,-56.93 184.5,-48 188.6,-40.59 195.21,-34.67 202.33,-30.03"/>
<polygon fill="#9a32cd" stroke="#9a32cd" points="177.36,-78.65 182.76,-87.77 184.22,-77.28 177.36,-78.65"/>
</a>
</g>
<text text-anchor="middle" x="197" y="-56.5" font-family="Helvetica,sans-Serif" font-size="10.00" fill="grey"> next</text>
</g>
<!-- Node3&#45;&gt;Node2 -->
<g id="edge2_Node000002_Node000003" class="edge">
<title>Node3&#45;&gt;Node2</title>
<g id="a_edge2_Node000002_Node000003"><a xlink:title=" ">
<path fill="none" stroke="#9a32cd" stroke-dasharray="5,2" d="M227.56,-39.75C223.89,-49.44 219.09,-60.56 213.5,-70 209.85,-76.16 205.09,-82.39 200.63,-87.7"/>
<polygon fill="#9a32cd" stroke="#9a32cd" points="230.87,-40.89 230.98,-30.3 224.29,-38.52 230.87,-40.89"/>
</a>
</g>
<text text-anchor="middle" x="232" y="-56.5" font-family="Helvetica,sans-Serif" font-size="10.00" fill="grey"> ptr</text>
</g>
</g>
</svg>
