<?xml version="1.0" encoding="UTF-8" standalone="no"?>
<!DOCTYPE svg PUBLIC "-//W3C//DTD SVG 1.1//EN"
 "http://www.w3.org/Graphics/SVG/1.1/DTD/svg11.dtd">
<!-- Generated by graphviz version 2.42.4 (0)
 -->
<!-- Title: main Pages: 1 -->
<!--zoomable 306 -->

<svg id="main" version="1.1" xmlns="http://www.w3.org/2000/svg" xmlns:xlink="http://www.w3.org/1999/xlink" xml:space="preserve" onload="init(evt)">
<style type="text/css"><![CDATA[
.node, .edge {opacity: 0.7;}
.node.selected, .edge.selected {opacity: 1;}
.edge:hover path { stroke: red; }
.edge:hover polygon { stroke: red; fill: red; }
]]></style>

<defs>
  <circle id="rim" cx="0" cy="0" r="7"/>
  <circle id="rim2" cx="0" cy="0" r="3.5"/>
  <g id="zoomPlus">
    <use xlink:href="#rim" fill="#404040"><set attributeName="fill" to="#808080" begin="zoomplus.mouseover" end="zoomplus.mouseout"/></use>
    <path d="M-4,0h8M0,-4v8" fill="none" stroke="white" stroke-width="1.5" pointer-events="none"/>
  </g>
  <g id="zoomMin">
    <use xlink:href="#rim" fill="#404040"><set attributeName="fill" to="#808080" begin="zoomminus.mouseover" end="zoomminus.mouseout"/></use>
    <path d="M-4,0h8" fill="none" stroke="white" stroke-width="1.5" pointer-events="none"/>
  </g>
  <g id="arrowUp" transform="translate(30 24)">
    <use xlink:href="#rim"/>
    <path pointer-events="none" fill="none" stroke="white" stroke-width="1.5" d="M0,-3.0v7 M-2.5,-0.5L0,-3.0L2.5,-0.5"/>
  </g>
  <g id="arrowRight" transform="rotate(90) translate(36 -43)">
    <use xlink:href="#rim"/>
    <path pointer-events="none" fill="none" stroke="white" stroke-width="1.5" d="M0,-3.0v7 M-2.5,-0.5L0,-3.0L2.5,-0.5"/>
  </g>
  <g id="arrowDown" transform="rotate(180) translate(-30 -48)">
    <use xlink:href="#rim"/>
    <path pointer-events="none" fill="none" stroke="white" stroke-width="1.5" d="M0,-3.0v7 M-2.5,-0.5L0,-3.0L2.5,-0.5"/>
  </g>
  <g id="arrowLeft" transform="rotate(270) translate(-36 17)">
    <use xlink:href="#rim"/>
    <path pointer-events="none" fill="none" stroke="white" stroke-width="1.5" d="M0,-3.0v7 M-2.5,-0.5L0,-3.0L2.5,-0.5"/>
  </g>
  <g id="resetDef">
    <use xlink:href="#rim2" fill="#404040"><set attributeName="fill" to="#808080" begin="reset.mouseover" end="reset.mouseout"/></use>
  </g>
</defs>
<script type="application/ecmascript">
var viewWidth = 644;
var viewHeight = 306;
var sectionId = 'dynsection-1';
</script>
<script type="application/ecmascript" xlink:href="../../svg.min.js"/>
<svg id="graph" class="graph">
<g id="viewport">
<title>main</title>
<!-- Node1 -->
<g id="Node000001" class="node">
<title>Node1</title>
<g id="a_Node000001"><a xlink:title="Main entry point.">
<polygon fill="#999999" stroke="#666666" points="41,-195 0,-195 0,-176 41,-176 41,-195"/>
<text text-anchor="middle" x="20.5" y="-183" font-family="Helvetica,sans-Serif" font-size="10.00">main</text>
</a>
</g>
</g>
<!-- Node2 -->
<g id="Node000002" class="node">
<title>Node2</title>
<g id="a_Node000002"><a xlink:href="../../d7/dc3/benchmark__main_8cpp.html#aed4a8d43bc7a38e03938eb2f70aebfdf" target="_top" xlink:title="Parse command line arguments.">
<polygon fill="white" stroke="#666666" points="179,-232 109,-232 109,-213 179,-213 179,-232"/>
<text text-anchor="middle" x="144" y="-220" font-family="Helvetica,sans-Serif" font-size="10.00">parse_args</text>
</a>
</g>
</g>
<!-- Node1&#45;&gt;Node2 -->
<g id="edge1_Node000001_Node000002" class="edge">
<title>Node1&#45;&gt;Node2</title>
<g id="a_edge1_Node000001_Node000002"><a xlink:title=" ">
<path fill="none" stroke="#63b8ff" d="M41.18,-192.58C51.75,-196.29 65.03,-200.82 77,-204.5 84.18,-206.71 91.85,-208.92 99.32,-211.01"/>
<polygon fill="#63b8ff" stroke="#63b8ff" points="98.4,-214.38 108.97,-213.66 100.25,-207.63 98.4,-214.38"/>
</a>
</g>
</g>
<!-- Node3 -->
<g id="Node000003" class="node">
<title>Node3</title>
<g id="a_Node000003"><a xlink:href="../../d7/dc3/benchmark__main_8cpp.html#ac7608332d002ef2745359f4cada4afc8" target="_top" xlink:title="Print usage information.">
<polygon fill="white" stroke="#666666" points="181,-195 107,-195 107,-176 181,-176 181,-195"/>
<text text-anchor="middle" x="144" y="-183" font-family="Helvetica,sans-Serif" font-size="10.00">print_usage</text>
</a>
</g>
</g>
<!-- Node1&#45;&gt;Node3 -->
<g id="edge2_Node000001_Node000003" class="edge">
<title>Node1&#45;&gt;Node3</title>
<g id="a_edge2_Node000001_Node000003"><a xlink:title=" ">
<path fill="none" stroke="#63b8ff" d="M41.02,-185.5C56.03,-185.5 77.4,-185.5 96.71,-185.5"/>
<polygon fill="#63b8ff" stroke="#63b8ff" points="96.86,-189 106.86,-185.5 96.86,-182 96.86,-189"/>
</a>
</g>
</g>
<!-- Node4 -->
<g id="Node000004" class="node">
<title>Node4</title>
<g id="a_Node000004"><a xlink:href="../../d5/df1/class_benchmark_harness.html#ab98039f28d238ec4a655b92a400b747c" target="_top" xlink:title="Run the benchmark and collect metrics.">
<polygon fill="white" stroke="#666666" points="211,-158 77,-158 77,-139 211,-139 211,-158"/>
<text text-anchor="middle" x="144" y="-146" font-family="Helvetica,sans-Serif" font-size="10.00">BenchmarkHarness::run</text>
</a>
</g>
</g>
<!-- Node1&#45;&gt;Node4 -->
<g id="edge3_Node000001_Node000004" class="edge">
<title>Node1&#45;&gt;Node4</title>
<g id="a_edge3_Node000001_Node000004"><a xlink:title=" ">
<path fill="none" stroke="#63b8ff" d="M41.18,-178.42C51.75,-174.71 65.03,-170.18 77,-166.5 83.18,-164.6 89.72,-162.69 96.19,-160.87"/>
<polygon fill="#63b8ff" stroke="#63b8ff" points="97.53,-164.13 106.22,-158.08 95.65,-157.39 97.53,-164.13"/>
</a>
</g>
</g>
<!-- Node5 -->
<g id="Node000005" class="node">
<title>Node5</title>
<g id="a_Node000005"><a xlink:href="../../d5/df1/class_benchmark_harness.html#a8ab58dfdf6efce16c84f6ca728b65335" target="_top" xlink:title="Consumer worker thread function.">
<polygon fill="white" stroke="#666666" points="413,-249.5 247,-249.5 247,-219.5 413,-219.5 413,-249.5"/>
<text text-anchor="start" x="255" y="-237.5" font-family="Helvetica,sans-Serif" font-size="10.00">BenchmarkHarness::consumer</text>
<text text-anchor="middle" x="330" y="-226.5" font-family="Helvetica,sans-Serif" font-size="10.00">_worker</text>
</a>
</g>
</g>
<!-- Node4&#45;&gt;Node5 -->
<g id="edge4_Node000004_Node000005" class="edge">
<title>Node4&#45;&gt;Node5</title>
<g id="a_edge4_Node000004_Node000005"><a xlink:title=" ">
<path fill="none" stroke="#63b8ff" d="M192.84,-158.09C199.19,-160.34 205.42,-163.11 211,-166.5 231.16,-178.75 227.3,-192.52 247,-205.5 252.59,-209.18 258.71,-212.46 264.99,-215.36"/>
<polygon fill="#63b8ff" stroke="#63b8ff" points="263.72,-218.63 274.29,-219.35 266.48,-212.19 263.72,-218.63"/>
</a>
</g>
</g>
<!-- Node7 -->
<g id="Node000007" class="node">
<title>Node7</title>
<g id="a_Node000007"><a xlink:href="../../d5/df1/class_benchmark_harness.html#a6b0853eb2949f2a76e003f62b8159c07" target="_top" xlink:title="Demangle C++ type name for readable output.">
<polygon fill="white" stroke="#666666" points="626,-249.5 459,-249.5 459,-219.5 626,-219.5 626,-249.5"/>
<text text-anchor="start" x="467" y="-237.5" font-family="Helvetica,sans-Serif" font-size="10.00">BenchmarkHarness::demangle</text>
<text text-anchor="middle" x="542.5" y="-226.5" font-family="Helvetica,sans-Serif" font-size="10.00">_type_name</text>
</a>
</g>
</g>
<!-- Node4&#45;&gt;Node7 -->
<g id="edge7_Node000004_Node000007" class="edge">
<title>Node4&#45;&gt;Node7</title>
<g id="a_edge7_Node000004_Node000007"><a xlink:title=" ">
<path fill="none" stroke="#63b8ff" d="M184.67,-158.06C203.53,-162.55 226.4,-167.91 247,-172.5 317.87,-188.29 398.57,-205.21 457.56,-217.38"/>
<polygon fill="#63b8ff" stroke="#63b8ff" points="457.07,-220.85 467.57,-219.44 458.48,-213.99 457.07,-220.85"/>
</a>
</g>
</g>
<!-- Node8 -->
<g id="Node000008" class="node">
<title>Node8</title>
<g id="a_Node000008"><a xlink:href="../../d5/df1/class_benchmark_harness.html#adfe944ea37515cb3c587c0e35d08187b" target="_top" xlink:title="Print benchmark results.">
<polygon fill="white" stroke="#666666" points="400,-163.5 260,-163.5 260,-133.5 400,-133.5 400,-163.5"/>
<text text-anchor="start" x="268" y="-151.5" font-family="Helvetica,sans-Serif" font-size="10.00">BenchmarkHarness::print</text>
<text text-anchor="middle" x="330" y="-140.5" font-family="Helvetica,sans-Serif" font-size="10.00">_results</text>
</a>
</g>
</g>
<!-- Node4&#45;&gt;Node8 -->
<g id="edge8_Node000004_Node000008" class="edge">
<title>Node4&#45;&gt;Node8</title>
<g id="a_edge8_Node000004_Node000008"><a xlink:title=" ">
<path fill="none" stroke="#63b8ff" d="M211.17,-148.5C223.61,-148.5 236.73,-148.5 249.53,-148.5"/>
<polygon fill="#63b8ff" stroke="#63b8ff" points="249.7,-152 259.7,-148.5 249.7,-145 249.7,-152"/>
</a>
</g>
</g>
<!-- Node11 -->
<g id="Node000011" class="node">
<title>Node11</title>
<g id="a_Node000011"><a xlink:href="../../d5/df1/class_benchmark_harness.html#a954c1917a9fd4513292a909db4dba376" target="_top" xlink:title="Producer worker thread function.">
<polygon fill="white" stroke="#666666" points="410.5,-297.5 249.5,-297.5 249.5,-267.5 410.5,-267.5 410.5,-297.5"/>
<text text-anchor="start" x="257.5" y="-285.5" font-family="Helvetica,sans-Serif" font-size="10.00">BenchmarkHarness::producer</text>
<text text-anchor="middle" x="330" y="-274.5" font-family="Helvetica,sans-Serif" font-size="10.00">_worker</text>
</a>
</g>
</g>
<!-- Node4&#45;&gt;Node11 -->
<g id="edge12_Node000004_Node000011" class="edge">
<title>Node4&#45;&gt;Node11</title>
<g id="a_edge12_Node000004_Node000011"><a xlink:title=" ">
<path fill="none" stroke="#63b8ff" d="M198.15,-158.06C202.82,-160.31 207.2,-163.09 211,-166.5 243.66,-195.85 214.61,-228.85 247,-258.5 248.28,-259.67 249.61,-260.78 250.99,-261.84"/>
<polygon fill="#63b8ff" stroke="#63b8ff" points="249.07,-264.77 259.35,-267.34 252.92,-258.92 249.07,-264.77"/>
</a>
</g>
</g>
<!-- Node12 -->
<g id="Node000012" class="node">
<title>Node12</title>
<g id="a_Node000012"><a xlink:href="../../d9/d4a/struct_benchmark_harness_1_1_statistics.html#a4207834ab7ef31ef3af941133bf9337b" target="_top" xlink:title="Reset statistics.">
<polygon fill="white" stroke="#666666" points="411.5,-115.5 248.5,-115.5 248.5,-85.5 411.5,-85.5 411.5,-115.5"/>
<text text-anchor="start" x="256.5" y="-103.5" font-family="Helvetica,sans-Serif" font-size="10.00">BenchmarkHarness::Statistics</text>
<text text-anchor="middle" x="330" y="-92.5" font-family="Helvetica,sans-Serif" font-size="10.00">::reset</text>
</a>
</g>
</g>
<!-- Node4&#45;&gt;Node12 -->
<g id="edge15_Node000004_Node000012" class="edge">
<title>Node4&#45;&gt;Node12</title>
<g id="a_edge15_Node000004_Node000012"><a xlink:title=" ">
<path fill="none" stroke="#63b8ff" d="M181.79,-138.9C204.58,-132.96 234.55,-125.14 261.49,-118.11"/>
<polygon fill="#63b8ff" stroke="#63b8ff" points="262.47,-121.47 271.26,-115.56 260.7,-114.7 262.47,-121.47"/>
</a>
</g>
</g>
<!-- Node13 -->
<g id="Node000013" class="node">
<title>Node13</title>
<g id="a_Node000013"><a xlink:href="../../d9/d4a/struct_benchmark_harness_1_1_statistics.html#ad3991b4b5037b743ac4e71eaa692aa63" target="_top" xlink:title="Sort latencies for percentile calculation.">
<polygon fill="white" stroke="#666666" points="411.5,-67.5 248.5,-67.5 248.5,-37.5 411.5,-37.5 411.5,-67.5"/>
<text text-anchor="start" x="256.5" y="-55.5" font-family="Helvetica,sans-Serif" font-size="10.00">BenchmarkHarness::Statistics</text>
<text text-anchor="middle" x="330" y="-44.5" font-family="Helvetica,sans-Serif" font-size="10.00">::sort</text>
</a>
</g>
</g>
<!-- Node4&#45;&gt;Node13 -->
<g id="edge16_Node000004_Node000013" class="edge">
<title>Node4&#45;&gt;Node13</title>
<g id="a_edge16_Node000004_Node000013"><a xlink:title=" ">
<path fill="none" stroke="#63b8ff" d="M155.85,-138.98C173.7,-123.77 210.89,-93.93 247,-76.5 251.02,-74.56 255.22,-72.75 259.51,-71.06"/>
<polygon fill="#63b8ff" stroke="#63b8ff" points="260.84,-74.29 269.01,-67.54 258.42,-67.73 260.84,-74.29"/>
</a>
</g>
</g>
<!-- Node14 -->
<g id="Node000014" class="node">
<title>Node14</title>
<g id="a_Node000014"><a xlink:href="../../d5/df1/class_benchmark_harness.html#a1efa36c9fd527e1b4eeea4cad7569365" target="_top" xlink:title="Warm&#45;up phase to stabilize system state.">
<polygon fill="white" stroke="#666666" points="409,-19 251,-19 251,0 409,0 409,-19"/>
<text text-anchor="middle" x="330" y="-7" font-family="Helvetica,sans-Serif" font-size="10.00">BenchmarkHarness::warmup</text>
</a>
</g>
</g>
<!-- Node4&#45;&gt;Node14 -->
<g id="edge17_Node000004_Node000014" class="edge">
<title>Node4&#45;&gt;Node14</title>
<g id="a_edge17_Node000004_Node000014"><a xlink:title=" ">
<path fill="none" stroke="#63b8ff" d="M150.21,-138.91C163.23,-115.91 199.59,-57.37 247,-28.5 250.58,-26.32 254.39,-24.39 258.33,-22.68"/>
<polygon fill="#63b8ff" stroke="#63b8ff" points="259.63,-25.93 267.71,-19.08 257.12,-19.39 259.63,-25.93"/>
</a>
</g>
</g>
<!-- Node6 -->
<g id="Node000006" class="node">
<title>Node6</title>
<g id="a_Node000006"><a xlink:href="../../d9/d4a/struct_benchmark_harness_1_1_statistics.html#a5c281bbe2097f2de982f2525cfbe6a16" target="_top" xlink:title="Add a latency measurement.">
<polygon fill="white" stroke="#666666" points="636,-289 449,-289 449,-270 636,-270 636,-289"/>
<text text-anchor="middle" x="542.5" y="-277" font-family="Helvetica,sans-Serif" font-size="10.00">BenchmarkHarness::Statistics::add</text>
</a>
</g>
</g>
<!-- Node5&#45;&gt;Node6 -->
<g id="edge5_Node000005_Node000006" class="edge">
<title>Node5&#45;&gt;Node6</title>
<g id="a_edge5_Node000005_Node000006"><a xlink:title=" ">
<path fill="none" stroke="#63b8ff" d="M401.39,-249.55C429.24,-255.5 460.77,-262.24 486.86,-267.82"/>
<polygon fill="#63b8ff" stroke="#63b8ff" points="486.42,-271.31 496.93,-269.97 487.89,-264.46 486.42,-271.31"/>
</a>
</g>
</g>
<!-- Node5&#45;&gt;Node7 -->
<g id="edge6_Node000005_Node000007" class="edge">
<title>Node5&#45;&gt;Node7</title>
<g id="a_edge6_Node000005_Node000007"><a xlink:title=" ">
<path fill="none" stroke="#63b8ff" d="M413.29,-234.5C424.88,-234.5 436.87,-234.5 448.64,-234.5"/>
<polygon fill="#63b8ff" stroke="#63b8ff" points="448.92,-238 458.92,-234.5 448.92,-231 448.92,-238"/>
</a>
</g>
</g>
<!-- Node9 -->
<g id="Node000009" class="node">
<title>Node9</title>
<g id="a_Node000009"><a xlink:href="../../d9/d4a/struct_benchmark_harness_1_1_statistics.html#aea4d54c650d5a1d1526f8aaa2aaff874" target="_top" xlink:title="Get average latency.">
<polygon fill="white" stroke="#666666" points="636,-179 449,-179 449,-160 636,-160 636,-179"/>
<text text-anchor="middle" x="542.5" y="-167" font-family="Helvetica,sans-Serif" font-size="10.00">BenchmarkHarness::Statistics::avg</text>
</a>
</g>
</g>
<!-- Node8&#45;&gt;Node9 -->
<g id="edge9_Node000008_Node000009" class="edge">
<title>Node8&#45;&gt;Node9</title>
<g id="a_edge9_Node000008_Node000009"><a xlink:title=" ">
<path fill="none" stroke="#63b8ff" d="M400.22,-155.41C412.63,-156.64 425.8,-157.96 438.92,-159.27"/>
<polygon fill="#63b8ff" stroke="#63b8ff" points="438.63,-162.76 448.93,-160.27 439.33,-155.79 438.63,-162.76"/>
</a>
</g>
</g>
<!-- Node10 -->
<g id="Node000010" class="node">
<title>Node10</title>
<g id="a_Node000010"><a xlink:href="../../d9/d4a/struct_benchmark_harness_1_1_statistics.html#ad8faaa626f7e0a120b6e260f1dafae2f" target="_top" xlink:title="Get percentile latency.">
<polygon fill="white" stroke="#666666" points="624,-123.5 461,-123.5 461,-93.5 624,-93.5 624,-123.5"/>
<text text-anchor="start" x="469" y="-111.5" font-family="Helvetica,sans-Serif" font-size="10.00">BenchmarkHarness::Statistics</text>
<text text-anchor="middle" x="542.5" y="-100.5" font-family="Helvetica,sans-Serif" font-size="10.00">::percentile</text>
</a>
</g>
</g>
<!-- Node8&#45;&gt;Node10 -->
<g id="edge10_Node000008_Node000010" class="edge">
<title>Node8&#45;&gt;Node10</title>
<g id="a_edge10_Node000008_Node000010"><a xlink:title=" ">
<path fill="none" stroke="#63b8ff" d="M400.22,-135.35C416.85,-132.19 434.84,-128.77 452.23,-125.46"/>
<polygon fill="#63b8ff" stroke="#63b8ff" points="453.22,-128.84 462.39,-123.53 451.92,-121.96 453.22,-128.84"/>
</a>
</g>
</g>
<!-- Node10&#45;&gt;Node10 -->
<g id="edge11_Node000010_Node000010" class="edge">
<title>Node10&#45;&gt;Node10</title>
<g id="a_edge11_Node000010_Node000010"><a xlink:title=" ">
<path fill="none" stroke="#63b8ff" d="M505.23,-123.78C496.95,-132.91 509.38,-141.5 542.5,-141.5 562.17,-141.5 574.54,-138.47 579.61,-134.1"/>
<polygon fill="#63b8ff" stroke="#63b8ff" points="583.11,-133.83 579.77,-123.78 576.11,-133.72 583.11,-133.83"/>
</a>
</g>
</g>
<!-- Node11&#45;&gt;Node6 -->
<g id="edge13_Node000011_Node000006" class="edge">
<title>Node11&#45;&gt;Node6</title>
<g id="a_edge13_Node000011_Node000006"><a xlink:title=" ">
<path fill="none" stroke="#63b8ff" d="M410.58,-281.37C419.73,-281.24 429.15,-281.1 438.55,-280.97"/>
<polygon fill="#63b8ff" stroke="#63b8ff" points="438.78,-284.46 448.73,-280.82 438.68,-277.47 438.78,-284.46"/>
</a>
</g>
</g>
<!-- Node11&#45;&gt;Node7 -->
<g id="edge14_Node000011_Node000007" class="edge">
<title>Node11&#45;&gt;Node7</title>
<g id="a_edge14_Node000011_Node000007"><a xlink:title=" ">
<path fill="none" stroke="#63b8ff" d="M397.03,-267.44C418.87,-262.46 443.35,-256.88 465.86,-251.75"/>
<polygon fill="#63b8ff" stroke="#63b8ff" points="466.74,-255.14 475.71,-249.5 465.18,-248.31 466.74,-255.14"/>
</a>
</g>
</g>
</g>
</svg>

<g id="navigator" transform="translate(0 0)" fill="#404254">
  <rect fill="#f2f5e9" fill-opacity="0.5" stroke="#606060" stroke-width=".5" x="0" y="0" width="60" height="60"/>
  <use id="zoomplus" xlink:href="#zoomPlus" x="17" y="9" onmousedown="handleZoom(evt,'in')"/>
  <use id="zoomminus" xlink:href="#zoomMin" x="42" y="9" onmousedown="handleZoom(evt,'out')"/>
  <use id="reset" xlink:href="#resetDef" x="30" y="36" onmousedown="handleReset()"/>
   <use id="arrowup" xlink:href="#arrowUp" x="0" y="0" onmousedown="handlePan(0,-1)"/>
  <use id="arrowright" xlink:href="#arrowRight" x="0" y="0" onmousedown="handlePan(1,0)"/>
  <use id="arrowdown" xlink:href="#arrowDown" x="0" y="0" onmousedown="handlePan(0,1)"/>
  <use id="arrowleft" xlink:href="#arrowLeft" x="0" y="0" onmousedown="handlePan(-1,0)"/>
</g>
<svg viewBox="0 0 15 15" width="100%" height="30px" preserveAspectRatio="xMaxYMin meet">
 <g id="arrow_out" transform="scale(0.3 0.3)">
  <a xlink:href="benchmark__main_8cpp_a0ddf1224851353fc92bfbff6f499fa97_cgraph_org.svg" target="_base">
   <rect id="button" ry="5" rx="5" y="6" x="6" height="38" width="38"
        fill="#f2f5e9" fill-opacity="0.5" stroke="#606060" stroke-width="1.0"/>
   <path id="arrow"
     d="M 11.500037,31.436501 C 11.940474,20.09759 22.043105,11.32322 32.158766,21.979434 L 37.068811,17.246167 C 37.068811,17.246167 37.088388,32 37.088388,32 L 22.160133,31.978069 C 22.160133,31.978069 26.997745,27.140456 26.997745,27.140456 C 18.528582,18.264221 13.291696,25.230495 11.500037,31.436501 z"
     style="fill:#404040;"/>
  </a>
 </g>
</svg>

<style type='text/css'>
<![CDATA[
[data-mouse-over-selected='false'] { opacity: 0.7; }
[data-mouse-over-selected='true']  { opacity: 1.0; }
]]>
</style>
<script type="application/ecmascript"><![CDATA[
document.addEventListener('DOMContentLoaded', (event) => {
  highlightEdges();
  highlightAdjacentNodes();
});
]]></script>
</svg>
