<?xml version="1.0" encoding="UTF-8" standalone="no"?>
<!DOCTYPE svg PUBLIC "-//W3C//DTD SVG 1.1//EN"
 "http://www.w3.org/Graphics/SVG/1.1/DTD/svg11.dtd">
<!-- Generated by graphviz version 2.42.4 (0)
 -->
<!-- Title: MutexMPMCQueue&lt; T &gt; Pages: 1 -->
<svg width="230pt" height="93pt"
 viewBox="0.00 0.00 229.50 93.00" xmlns="http://www.w3.org/2000/svg" xmlns:xlink="http://www.w3.org/1999/xlink">
<g id="graph0" class="graph" transform="scale(1 1) rotate(0) translate(4 89)">
<title>MutexMPMCQueue&lt; T &gt;</title>
<!-- Node1 -->
<g id="Node000001" class="node">
<title>Node1</title>
<g id="a_Node000001"><a xlink:title="Baseline MPMC queue using mutex&#45;based synchronization.">
<polygon fill="#999999" stroke="#666666" points="163.5,-19 25.5,-19 25.5,0 163.5,0 163.5,-19"/>
<text text-anchor="middle" x="94.5" y="-7" font-family="Helvetica,sans-Serif" font-size="10.00">MutexMPMCQueue&lt; T &gt;</text>
</a>
</g>
</g>
<!-- Node2 -->
<g id="Node000002" class="node">
<title>Node2</title>
<g id="a_Node000002"><a xlink:title=" ">
<polygon fill="white" stroke="#666666" points="69,-85 0,-85 0,-66 69,-66 69,-85"/>
<text text-anchor="middle" x="34.5" y="-73" font-family="Helvetica,sans-Serif" font-size="10.00">std::mutex</text>
</a>
</g>
</g>
<!-- Node2&#45;&gt;Node1 -->
<g id="edge1_Node000001_Node000002" class="edge">
<title>Node2&#45;&gt;Node1</title>
<g id="a_edge1_Node000001_Node000002"><a xlink:title=" ">
<path fill="none" stroke="#9a32cd" stroke-dasharray="5,2" d="M49.52,-58.48C61.1,-46.12 76.7,-29.49 86.15,-19.41"/>
<polygon fill="#9a32cd" stroke="#9a32cd" points="46.88,-56.18 42.59,-65.87 51.98,-60.97 46.88,-56.18"/>
</a>
</g>
<text text-anchor="middle" x="88.5" y="-40" font-family="Helvetica,sans-Serif" font-size="10.00" fill="grey"> mutex_</text>
</g>
<!-- Node3 -->
<g id="Node000003" class="node">
<title>Node3</title>
<g id="a_Node000003"><a xlink:title=" ">
<polygon fill="white" stroke="#666666" points="221.5,-85 87.5,-85 87.5,-66 221.5,-66 221.5,-85"/>
<text text-anchor="middle" x="154.5" y="-73" font-family="Helvetica,sans-Serif" font-size="10.00">std::atomic&lt; uint64_t &gt;</text>
</a>
</g>
</g>
<!-- Node3&#45;&gt;Node1 -->
<g id="edge2_Node000001_Node000003" class="edge">
<title>Node3&#45;&gt;Node1</title>
<g id="a_edge2_Node000001_Node000003"><a xlink:title=" ">
<path fill="none" stroke="#9a32cd" stroke-dasharray="5,2" d="M139.48,-58.48C127.9,-46.12 112.3,-29.49 102.85,-19.41"/>
<polygon fill="#9a32cd" stroke="#9a32cd" points="137.02,-60.97 146.41,-65.87 142.12,-56.18 137.02,-60.97"/>
</a>
</g>
<text text-anchor="middle" x="141.5" y="-40" font-family="Helvetica,sans-Serif" font-size="10.00" fill="grey"> size_</text>
</g>
</g>
</svg>
