<?xml version="1.0" encoding="UTF-8" standalone="no"?>
<!DOCTYPE svg PUBLIC "-//W3C//DTD SVG 1.1//EN"
 "http://www.w3.org/Graphics/SVG/1.1/DTD/svg11.dtd">
<!-- Generated by graphviz version 2.42.4 (0)
 -->
<!-- Title: BoundedRingBufferMPMC&lt; T &gt; Pages: 1 -->
<svg width="292pt" height="258pt"
 viewBox="0.00 0.00 292.00 258.00" xmlns="http://www.w3.org/2000/svg" xmlns:xlink="http://www.w3.org/1999/xlink">

<svg id="main" version="1.1" xmlns="http://www.w3.org/2000/svg" xmlns:xlink="http://www.w3.org/1999/xlink" xml:space="preserve" onload="init(evt)">
<style type="text/css"><![CDATA[
.node, .edge {opacity: 0.7;}
.node.selected, .edge.selected {opacity: 1;}
.edge:hover path { stroke: red; }
.edge:hover polygon { stroke: red; fill: red; }
]]></style>
<script type="application/ecmascript" xlink:href="../../svg.min.js"/>
<svg id="graph" class="graph">
<g id="graph0" class="graph" transform="scale(1 1) rotate(0) translate(4 254)">
<title>BoundedRingBufferMPMC&lt; T &gt;</title>
<!-- Node1 -->
<g id="Node000001" class="node">
<title>Node1</title>
<g id="a_Node000001"><a xlink:title="Bounded MPMC queue using a ring buffer with atomic indices.">
<polygon fill="#999999" stroke="#666666" points="270,-19 100,-19 100,0 270,0 270,-19"/>
<text text-anchor="middle" x="185" y="-7" font-family="Helvetica,sans-Serif" font-size="10.00">BoundedRingBufferMPMC&lt; T &gt;</text>
</a>
</g>
</g>
<!-- Node2 -->
<g id="Node000002" class="node">
<title>Node2</title>
<g id="a_Node000002"><a xlink:title=" ">
<polygon fill="white" stroke="#666666" points="144,-107 0,-107 0,-77 144,-77 144,-107"/>
<text text-anchor="start" x="8" y="-95" font-family="Helvetica,sans-Serif" font-size="10.00">std::vector&lt; BoundedRing</text>
<text text-anchor="middle" x="72" y="-84" font-family="Helvetica,sans-Serif" font-size="10.00">BufferMPMC::Slot &gt;</text>
</a>
</g>
</g>
<!-- Node2&#45;&gt;Node1 -->
<g id="edge1_Node000001_Node000002" class="edge">
<title>Node2&#45;&gt;Node1</title>
<g id="a_edge1_Node000001_Node000002"><a xlink:title=" ">
<path fill="none" stroke="#9a32cd" stroke-dasharray="5,2" d="M99.85,-71.16C123.23,-54.5 155.52,-31.5 172.85,-19.16"/>
<polygon fill="#9a32cd" stroke="#9a32cd" points="97.8,-68.33 91.68,-76.98 101.86,-74.03 97.8,-68.33"/>
</a>
</g>
<text text-anchor="middle" x="164.5" y="-45.5" font-family="Helvetica,sans-Serif" font-size="10.00" fill="grey"> buffer_</text>
</g>
<!-- Node3 -->
<g id="Node000003" class="node">
<title>Node3</title>
<g id="a_Node000003"><a xlink:href="../../df/d71/struct_bounded_ring_buffer_m_p_m_c_1_1_slot.html" target="_top" xlink:title="Individual slot in the ring buffer.">
<polygon fill="white" stroke="#666666" points="142.5,-184 1.5,-184 1.5,-154 142.5,-154 142.5,-184"/>
<text text-anchor="start" x="9.5" y="-172" font-family="Helvetica,sans-Serif" font-size="10.00">BoundedRingBufferMPMC</text>
<text text-anchor="middle" x="72" y="-161" font-family="Helvetica,sans-Serif" font-size="10.00">&lt; T &gt;::Slot</text>
</a>
</g>
</g>
<!-- Node3&#45;&gt;Node2 -->
<g id="edge2_Node000002_Node000003" class="edge">
<title>Node3&#45;&gt;Node2</title>
<g id="a_edge2_Node000002_Node000003"><a xlink:title=" ">
<path fill="none" stroke="#9a32cd" stroke-dasharray="5,2" d="M72,-143.54C72,-131.45 72,-117.29 72,-107.04"/>
<polygon fill="#9a32cd" stroke="#9a32cd" points="68.5,-143.89 72,-153.89 75.5,-143.89 68.5,-143.89"/>
</a>
</g>
<text text-anchor="middle" x="96.5" y="-128" font-family="Helvetica,sans-Serif" font-size="10.00" fill="grey"> elements</text>
</g>
<!-- Node4 -->
<g id="Node000004" class="node">
<title>Node4</title>
<g id="a_Node000004"><a xlink:title=" ">
<polygon fill="white" stroke="#666666" points="129.5,-250 14.5,-250 14.5,-231 129.5,-231 129.5,-250"/>
<text text-anchor="middle" x="72" y="-238" font-family="Helvetica,sans-Serif" font-size="10.00">std::atomic&lt; bool &gt;</text>
</a>
</g>
</g>
<!-- Node4&#45;&gt;Node3 -->
<g id="edge3_Node000003_Node000004" class="edge">
<title>Node4&#45;&gt;Node3</title>
<g id="a_edge3_Node000003_Node000004"><a xlink:title=" ">
<path fill="none" stroke="#9a32cd" stroke-dasharray="5,2" d="M72,-220.71C72,-209.19 72,-194.68 72,-184.14"/>
<polygon fill="#9a32cd" stroke="#9a32cd" points="68.5,-220.98 72,-230.98 75.5,-220.98 68.5,-220.98"/>
</a>
</g>
<text text-anchor="middle" x="96" y="-205" font-family="Helvetica,sans-Serif" font-size="10.00" fill="grey"> has_data</text>
</g>
<!-- Node5 -->
<g id="Node000005" class="node">
<title>Node5</title>
<g id="a_Node000005"><a xlink:title=" ">
<polygon fill="white" stroke="#666666" points="284,-101.5 162,-101.5 162,-82.5 284,-82.5 284,-101.5"/>
<text text-anchor="middle" x="223" y="-89.5" font-family="Helvetica,sans-Serif" font-size="10.00">std::atomic&lt; size_t &gt;</text>
</a>
</g>
</g>
<!-- Node5&#45;&gt;Node1 -->
<g id="edge4_Node000001_Node000005" class="edge">
<title>Node5&#45;&gt;Node1</title>
<g id="a_edge4_Node000001_Node000005"><a xlink:title=" ">
<path fill="none" stroke="#9a32cd" stroke-dasharray="5,2" d="M214.56,-73.13C206.68,-56.42 195.23,-32.17 189.15,-19.3"/>
<polygon fill="#9a32cd" stroke="#9a32cd" points="211.5,-74.84 218.93,-82.39 217.83,-71.85 211.5,-74.84"/>
</a>
</g>
<text text-anchor="middle" x="233.5" y="-51" font-family="Helvetica,sans-Serif" font-size="10.00" fill="grey"> read_pos_</text>
<text text-anchor="middle" x="233.5" y="-40" font-family="Helvetica,sans-Serif" font-size="10.00" fill="grey">write_pos_</text>
</g>
</g>
</svg>
</svg>

<style type='text/css'>
<![CDATA[
[data-mouse-over-selected='false'] { opacity: 0.7; }
[data-mouse-over-selected='true']  { opacity: 1.0; }
]]>
</style>
<script type="application/ecmascript"><![CDATA[
document.addEventListener('DOMContentLoaded', (event) => {
  highlightEdges();
  highlightAdjacentNodes();
});
]]></script>
</svg>
