<?xml version="1.0" encoding="UTF-8" standalone="no"?>
<!DOCTYPE svg PUBLIC "-//W3C//DTD SVG 1.1//EN"
 "http://www.w3.org/Graphics/SVG/1.1/DTD/svg11.dtd">
<!-- Generated by graphviz version 2.42.4 (0)
 -->
<!-- Title: BenchmarkHarness::Statistics::percentile Pages: 1 -->
<svg width="594pt" height="56pt"
 viewBox="0.00 0.00 594.00 56.00" xmlns="http://www.w3.org/2000/svg" xmlns:xlink="http://www.w3.org/1999/xlink">
<g id="graph0" class="graph" transform="scale(1 1) rotate(0) translate(4 52)">
<title>BenchmarkHarness::Statistics::percentile</title>
<!-- Node1 -->
<g id="Node000001" class="node">
<title>Node1</title>
<g id="a_Node000001"><a xlink:title="Get percentile latency.">
<polygon fill="#999999" stroke="#666666" points="586,-30 423,-30 423,0 586,0 586,-30"/>
<text text-anchor="start" x="431" y="-18" font-family="Helvetica,sans-Serif" font-size="10.00">BenchmarkHarness::Statistics</text>
<text text-anchor="middle" x="504.5" y="-7" font-family="Helvetica,sans-Serif" font-size="10.00">::percentile</text>
</a>
</g>
</g>
<!-- Node1&#45;&gt;Node1 -->
<g id="edge1_Node000001_Node000001" class="edge">
<title>Node1&#45;&gt;Node1</title>
<g id="a_edge1_Node000001_Node000001"><a xlink:title=" ">
<path fill="none" stroke="#63b8ff" d="M537.06,-40.6C532.61,-44.97 521.76,-48 504.5,-48 475.44,-48 464.54,-39.41 471.8,-30.28"/>
<polygon fill="#63b8ff" stroke="#63b8ff" points="540.56,-40.32 537.2,-30.28 533.56,-40.23 540.56,-40.32"/>
</a>
</g>
</g>
<!-- Node2 -->
<g id="Node000002" class="node">
<title>Node2</title>
<g id="a_Node000002"><a xlink:href="../../d5/df1/class_benchmark_harness.html#adfe944ea37515cb3c587c0e35d08187b" target="_top" xlink:title="Print benchmark results.">
<polygon fill="white" stroke="#666666" points="387,-30 247,-30 247,0 387,0 387,-30"/>
<text text-anchor="start" x="255" y="-18" font-family="Helvetica,sans-Serif" font-size="10.00">BenchmarkHarness::print</text>
<text text-anchor="middle" x="317" y="-7" font-family="Helvetica,sans-Serif" font-size="10.00">_results</text>
</a>
</g>
</g>
<!-- Node1&#45;&gt;Node2 -->
<g id="edge2_Node000001_Node000002" class="edge">
<title>Node1&#45;&gt;Node2</title>
<g id="a_edge2_Node000001_Node000002"><a xlink:title=" ">
<path fill="none" stroke="#63b8ff" d="M412.83,-15C404.2,-15 395.53,-15 387.15,-15"/>
<polygon fill="#63b8ff" stroke="#63b8ff" points="412.95,-18.5 422.95,-15 412.95,-11.5 412.95,-18.5"/>
</a>
</g>
</g>
<!-- Node3 -->
<g id="Node000003" class="node">
<title>Node3</title>
<g id="a_Node000003"><a xlink:href="../../d5/df1/class_benchmark_harness.html#ab98039f28d238ec4a655b92a400b747c" target="_top" xlink:title="Run the benchmark and collect metrics.">
<polygon fill="white" stroke="#666666" points="211,-24.5 77,-24.5 77,-5.5 211,-5.5 211,-24.5"/>
<text text-anchor="middle" x="144" y="-12.5" font-family="Helvetica,sans-Serif" font-size="10.00">BenchmarkHarness::run</text>
</a>
</g>
</g>
<!-- Node2&#45;&gt;Node3 -->
<g id="edge3_Node000002_Node000003" class="edge">
<title>Node2&#45;&gt;Node3</title>
<g id="a_edge3_Node000002_Node000003"><a xlink:title=" ">
<path fill="none" stroke="#63b8ff" d="M236.93,-15C228.34,-15 219.67,-15 211.27,-15"/>
<polygon fill="#63b8ff" stroke="#63b8ff" points="236.94,-18.5 246.94,-15 236.94,-11.5 236.94,-18.5"/>
</a>
</g>
</g>
<!-- Node4 -->
<g id="Node000004" class="node">
<title>Node4</title>
<g id="a_Node000004"><a xlink:href="../../d7/dc3/benchmark__main_8cpp.html#a0ddf1224851353fc92bfbff6f499fa97" target="_top" xlink:title="Main entry point.">
<polygon fill="white" stroke="#666666" points="41,-24.5 0,-24.5 0,-5.5 41,-5.5 41,-24.5"/>
<text text-anchor="middle" x="20.5" y="-12.5" font-family="Helvetica,sans-Serif" font-size="10.00">main</text>
</a>
</g>
</g>
<!-- Node3&#45;&gt;Node4 -->
<g id="edge4_Node000003_Node000004" class="edge">
<title>Node3&#45;&gt;Node4</title>
<g id="a_edge4_Node000003_Node000004"><a xlink:title=" ">
<path fill="none" stroke="#63b8ff" d="M66.65,-15C57.34,-15 48.56,-15 41.25,-15"/>
<polygon fill="#63b8ff" stroke="#63b8ff" points="66.92,-18.5 76.92,-15 66.92,-11.5 66.92,-18.5"/>
</a>
</g>
</g>
</g>
</svg>
