<?xml version="1.0" encoding="UTF-8" standalone="no"?>
<!DOCTYPE svg PUBLIC "-//W3C//DTD SVG 1.1//EN"
 "http://www.w3.org/Graphics/SVG/1.1/DTD/svg11.dtd">
<!-- Generated by graphviz version 2.42.4 (0)
 -->
<!-- Title: BenchmarkHarness::Statistics::add Pages: 1 -->
<svg width="644pt" height="86pt"
 viewBox="0.00 0.00 644.00 86.00" xmlns="http://www.w3.org/2000/svg" xmlns:xlink="http://www.w3.org/1999/xlink">
<g id="graph0" class="graph" transform="scale(1 1) rotate(0) translate(4 82)">
<title>BenchmarkHarness::Statistics::add</title>
<!-- Node1 -->
<g id="Node000001" class="node">
<title>Node1</title>
<g id="a_Node000001"><a xlink:title="Add a latency measurement.">
<polygon fill="#999999" stroke="#666666" points="636,-48.5 449,-48.5 449,-29.5 636,-29.5 636,-48.5"/>
<text text-anchor="middle" x="542.5" y="-36.5" font-family="Helvetica,sans-Serif" font-size="10.00">BenchmarkHarness::Statistics::add</text>
</a>
</g>
</g>
<!-- Node2 -->
<g id="Node000002" class="node">
<title>Node2</title>
<g id="a_Node000002"><a xlink:href="../../d5/df1/class_benchmark_harness.html#a8ab58dfdf6efce16c84f6ca728b65335" target="_top" xlink:title="Consumer worker thread function.">
<polygon fill="white" stroke="#666666" points="413,-78 247,-78 247,-48 413,-48 413,-78"/>
<text text-anchor="start" x="255" y="-66" font-family="Helvetica,sans-Serif" font-size="10.00">BenchmarkHarness::consumer</text>
<text text-anchor="middle" x="330" y="-55" font-family="Helvetica,sans-Serif" font-size="10.00">_worker</text>
</a>
</g>
</g>
<!-- Node1&#45;&gt;Node2 -->
<g id="edge1_Node000001_Node000002" class="edge">
<title>Node1&#45;&gt;Node2</title>
<g id="a_edge1_Node000001_Node000002"><a xlink:title=" ">
<path fill="none" stroke="#63b8ff" d="M447.86,-49.68C436.25,-51 424.44,-52.35 413.02,-53.65"/>
<polygon fill="#63b8ff" stroke="#63b8ff" points="448.46,-53.13 458,-48.52 447.67,-46.18 448.46,-53.13"/>
</a>
</g>
</g>
<!-- Node5 -->
<g id="Node000005" class="node">
<title>Node5</title>
<g id="a_Node000005"><a xlink:href="../../d5/df1/class_benchmark_harness.html#a954c1917a9fd4513292a909db4dba376" target="_top" xlink:title="Producer worker thread function.">
<polygon fill="white" stroke="#666666" points="410.5,-30 249.5,-30 249.5,0 410.5,0 410.5,-30"/>
<text text-anchor="start" x="257.5" y="-18" font-family="Helvetica,sans-Serif" font-size="10.00">BenchmarkHarness::producer</text>
<text text-anchor="middle" x="330" y="-7" font-family="Helvetica,sans-Serif" font-size="10.00">_worker</text>
</a>
</g>
</g>
<!-- Node1&#45;&gt;Node5 -->
<g id="edge4_Node000001_Node000005" class="edge">
<title>Node1&#45;&gt;Node5</title>
<g id="a_edge4_Node000001_Node000005"><a xlink:title=" ">
<path fill="none" stroke="#63b8ff" d="M448.05,-28.35C435.56,-26.92 422.85,-25.47 410.62,-24.08"/>
<polygon fill="#63b8ff" stroke="#63b8ff" points="447.67,-31.82 458,-29.48 448.46,-24.87 447.67,-31.82"/>
</a>
</g>
</g>
<!-- Node3 -->
<g id="Node000003" class="node">
<title>Node3</title>
<g id="a_Node000003"><a xlink:href="../../d5/df1/class_benchmark_harness.html#ab98039f28d238ec4a655b92a400b747c" target="_top" xlink:title="Run the benchmark and collect metrics.">
<polygon fill="white" stroke="#666666" points="211,-48.5 77,-48.5 77,-29.5 211,-29.5 211,-48.5"/>
<text text-anchor="middle" x="144" y="-36.5" font-family="Helvetica,sans-Serif" font-size="10.00">BenchmarkHarness::run</text>
</a>
</g>
</g>
<!-- Node2&#45;&gt;Node3 -->
<g id="edge2_Node000002_Node000003" class="edge">
<title>Node2&#45;&gt;Node3</title>
<g id="a_edge2_Node000002_Node000003"><a xlink:title=" ">
<path fill="none" stroke="#63b8ff" d="M236.81,-50.98C228.16,-49.85 219.5,-48.72 211.16,-47.63"/>
<polygon fill="#63b8ff" stroke="#63b8ff" points="236.59,-54.48 246.96,-52.3 237.49,-47.53 236.59,-54.48"/>
</a>
</g>
</g>
<!-- Node4 -->
<g id="Node000004" class="node">
<title>Node4</title>
<g id="a_Node000004"><a xlink:href="../../d7/dc3/benchmark__main_8cpp.html#a0ddf1224851353fc92bfbff6f499fa97" target="_top" xlink:title="Main entry point.">
<polygon fill="white" stroke="#666666" points="41,-48.5 0,-48.5 0,-29.5 41,-29.5 41,-48.5"/>
<text text-anchor="middle" x="20.5" y="-36.5" font-family="Helvetica,sans-Serif" font-size="10.00">main</text>
</a>
</g>
</g>
<!-- Node3&#45;&gt;Node4 -->
<g id="edge3_Node000003_Node000004" class="edge">
<title>Node3&#45;&gt;Node4</title>
<g id="a_edge3_Node000003_Node000004"><a xlink:title=" ">
<path fill="none" stroke="#63b8ff" d="M66.65,-39C57.34,-39 48.56,-39 41.25,-39"/>
<polygon fill="#63b8ff" stroke="#63b8ff" points="66.92,-42.5 76.92,-39 66.92,-35.5 66.92,-42.5"/>
</a>
</g>
</g>
<!-- Node5&#45;&gt;Node3 -->
<g id="edge5_Node000005_Node000003" class="edge">
<title>Node5&#45;&gt;Node3</title>
<g id="a_edge5_Node000005_Node000003"><a xlink:title=" ">
<path fill="none" stroke="#63b8ff" d="M239.18,-26.72C229.76,-27.94 220.31,-29.18 211.23,-30.36"/>
<polygon fill="#63b8ff" stroke="#63b8ff" points="239.9,-30.15 249.37,-25.39 239,-23.21 239.9,-30.15"/>
</a>
</g>
</g>
</g>
</svg>
