<?xml version="1.0" encoding="UTF-8" standalone="no"?>
<!DOCTYPE svg PUBLIC "-//W3C//DTD SVG 1.1//EN"
 "http://www.w3.org/Graphics/SVG/1.1/DTD/svg11.dtd">
<!-- Generated by graphviz version 2.42.4 (0)
 -->
<!-- Title: BenchmarkHarness::Statistics::reset Pages: 1 -->
<svg width="418pt" height="38pt"
 viewBox="0.00 0.00 418.00 38.00" xmlns="http://www.w3.org/2000/svg" xmlns:xlink="http://www.w3.org/1999/xlink">
<g id="graph0" class="graph" transform="scale(1 1) rotate(0) translate(4 34)">
<title>BenchmarkHarness::Statistics::reset</title>
<!-- Node1 -->
<g id="Node000001" class="node">
<title>Node1</title>
<g id="a_Node000001"><a xlink:title="Reset statistics.">
<polygon fill="#999999" stroke="#666666" points="410,-30 247,-30 247,0 410,0 410,-30"/>
<text text-anchor="start" x="255" y="-18" font-family="Helvetica,sans-Serif" font-size="10.00">BenchmarkHarness::Statistics</text>
<text text-anchor="middle" x="328.5" y="-7" font-family="Helvetica,sans-Serif" font-size="10.00">::reset</text>
</a>
</g>
</g>
<!-- Node2 -->
<g id="Node000002" class="node">
<title>Node2</title>
<g id="a_Node000002"><a xlink:href="../../d5/df1/class_benchmark_harness.html#ab98039f28d238ec4a655b92a400b747c" target="_top" xlink:title="Run the benchmark and collect metrics.">
<polygon fill="white" stroke="#666666" points="211,-24.5 77,-24.5 77,-5.5 211,-5.5 211,-24.5"/>
<text text-anchor="middle" x="144" y="-12.5" font-family="Helvetica,sans-Serif" font-size="10.00">BenchmarkHarness::run</text>
</a>
</g>
</g>
<!-- Node1&#45;&gt;Node2 -->
<g id="edge1_Node000001_Node000002" class="edge">
<title>Node1&#45;&gt;Node2</title>
<g id="a_edge1_Node000001_Node000002"><a xlink:title=" ">
<path fill="none" stroke="#63b8ff" d="M236.81,-15C228.18,-15 219.54,-15 211.21,-15"/>
<polygon fill="#63b8ff" stroke="#63b8ff" points="236.92,-18.5 246.92,-15 236.92,-11.5 236.92,-18.5"/>
</a>
</g>
</g>
<!-- Node3 -->
<g id="Node000003" class="node">
<title>Node3</title>
<g id="a_Node000003"><a xlink:href="../../d7/dc3/benchmark__main_8cpp.html#a0ddf1224851353fc92bfbff6f499fa97" target="_top" xlink:title="Main entry point.">
<polygon fill="white" stroke="#666666" points="41,-24.5 0,-24.5 0,-5.5 41,-5.5 41,-24.5"/>
<text text-anchor="middle" x="20.5" y="-12.5" font-family="Helvetica,sans-Serif" font-size="10.00">main</text>
</a>
</g>
</g>
<!-- Node2&#45;&gt;Node3 -->
<g id="edge2_Node000002_Node000003" class="edge">
<title>Node2&#45;&gt;Node3</title>
<g id="a_edge2_Node000002_Node000003"><a xlink:title=" ">
<path fill="none" stroke="#63b8ff" d="M66.65,-15C57.34,-15 48.56,-15 41.25,-15"/>
<polygon fill="#63b8ff" stroke="#63b8ff" points="66.92,-18.5 76.92,-15 66.92,-11.5 66.92,-18.5"/>
</a>
</g>
</g>
</g>
</svg>
