<?xml version="1.0" encoding="UTF-8" standalone="no"?>
<!DOCTYPE svg PUBLIC "-//W3C//DTD SVG 1.1//EN"
 "http://www.w3.org/Graphics/SVG/1.1/DTD/svg11.dtd">
<!-- Generated by graphviz version 2.42.4 (0)
 -->
<!-- Title: BenchmarkHarness&lt; Queue &gt; Pages: 1 -->
<!--zoomable 159 -->

<svg id="main" version="1.1" xmlns="http://www.w3.org/2000/svg" xmlns:xlink="http://www.w3.org/1999/xlink" xml:space="preserve" onload="init(evt)">
<style type="text/css"><![CDATA[
.node, .edge {opacity: 0.7;}
.node.selected, .edge.selected {opacity: 1;}
.edge:hover path { stroke: red; }
.edge:hover polygon { stroke: red; fill: red; }
]]></style>

<defs>
  <circle id="rim" cx="0" cy="0" r="7"/>
  <circle id="rim2" cx="0" cy="0" r="3.5"/>
  <g id="zoomPlus">
    <use xlink:href="#rim" fill="#404040"><set attributeName="fill" to="#808080" begin="zoomplus.mouseover" end="zoomplus.mouseout"/></use>
    <path d="M-4,0h8M0,-4v8" fill="none" stroke="white" stroke-width="1.5" pointer-events="none"/>
  </g>
  <g id="zoomMin">
    <use xlink:href="#rim" fill="#404040"><set attributeName="fill" to="#808080" begin="zoomminus.mouseover" end="zoomminus.mouseout"/></use>
    <path d="M-4,0h8" fill="none" stroke="white" stroke-width="1.5" pointer-events="none"/>
  </g>
  <g id="arrowUp" transform="translate(30 24)">
    <use xlink:href="#rim"/>
    <path pointer-events="none" fill="none" stroke="white" stroke-width="1.5" d="M0,-3.0v7 M-2.5,-0.5L0,-3.0L2.5,-0.5"/>
  </g>
  <g id="arrowRight" transform="rotate(90) translate(36 -43)">
    <use xlink:href="#rim"/>
    <path pointer-events="none" fill="none" stroke="white" stroke-width="1.5" d="M0,-3.0v7 M-2.5,-0.5L0,-3.0L2.5,-0.5"/>
  </g>
  <g id="arrowDown" transform="rotate(180) translate(-30 -48)">
    <use xlink:href="#rim"/>
    <path pointer-events="none" fill="none" stroke="white" stroke-width="1.5" d="M0,-3.0v7 M-2.5,-0.5L0,-3.0L2.5,-0.5"/>
  </g>
  <g id="arrowLeft" transform="rotate(270) translate(-36 17)">
    <use xlink:href="#rim"/>
    <path pointer-events="none" fill="none" stroke="white" stroke-width="1.5" d="M0,-3.0v7 M-2.5,-0.5L0,-3.0L2.5,-0.5"/>
  </g>
  <g id="resetDef">
    <use xlink:href="#rim2" fill="#404040"><set attributeName="fill" to="#808080" begin="reset.mouseover" end="reset.mouseout"/></use>
  </g>
</defs>
<script type="application/ecmascript">
var viewWidth = 701;
var viewHeight = 159;
var sectionId = 'dynsection-0';
</script>
<script type="application/ecmascript" xlink:href="../../svg.min.js"/>
<svg id="graph" class="graph">
<g id="viewport">
<title>BenchmarkHarness&lt; Queue &gt;</title>
<!-- Node1 -->
<g id="Node000001" class="node">
<title>Node1</title>
<g id="a_Node000001"><a xlink:title="Benchmark harness for MPMC queue implementations.">
<polygon fill="#999999" stroke="#666666" points="693,-83 527,-83 527,-64 693,-64 693,-83"/>
<text text-anchor="middle" x="610" y="-71" font-family="Helvetica,sans-Serif" font-size="10.00">BenchmarkHarness&lt; Queue &gt;</text>
</a>
</g>
</g>
<!-- Node2 -->
<g id="Node000002" class="node">
<title>Node2</title>
<g id="a_Node000002"><a xlink:title=" ">
<polygon fill="white" stroke="#666666" points="386,-151 271,-151 271,-132 386,-132 386,-151"/>
<text text-anchor="middle" x="328.5" y="-139" font-family="Helvetica,sans-Serif" font-size="10.00">std::atomic&lt; bool &gt;</text>
</a>
</g>
</g>
<!-- Node2&#45;&gt;Node1 -->
<g id="edge1_Node000001_Node000002" class="edge">
<title>Node2&#45;&gt;Node1</title>
<g id="a_edge1_Node000001_Node000002"><a xlink:title=" ">
<path fill="none" stroke="#9a32cd" stroke-dasharray="5,2" d="M396.68,-134.67C430.72,-130.3 472.48,-123.52 509,-113.5 537.49,-105.69 568.91,-92.28 588.78,-83.16"/>
<polygon fill="#9a32cd" stroke="#9a32cd" points="395.87,-131.25 386.38,-135.95 396.74,-138.19 395.87,-131.25"/>
</a>
</g>
<text text-anchor="middle" x="466.5" y="-132.5" font-family="Helvetica,sans-Serif" font-size="10.00" fill="grey"> stop_</text>
</g>
<!-- Node3 -->
<g id="Node000003" class="node">
<title>Node3</title>
<g id="a_Node000003"><a xlink:title=" ">
<polygon fill="white" stroke="#666666" points="395.5,-106 261.5,-106 261.5,-87 395.5,-87 395.5,-106"/>
<text text-anchor="middle" x="328.5" y="-94" font-family="Helvetica,sans-Serif" font-size="10.00">std::atomic&lt; uint64_t &gt;</text>
</a>
</g>
</g>
<!-- Node3&#45;&gt;Node1 -->
<g id="edge2_Node000001_Node000003" class="edge">
<title>Node3&#45;&gt;Node1</title>
<g id="a_edge2_Node000001_Node000003"><a xlink:title=" ">
<path fill="none" stroke="#9a32cd" stroke-dasharray="5,2" d="M406.1,-90.2C443.6,-87.11 488.79,-83.39 527,-80.25"/>
<polygon fill="#9a32cd" stroke="#9a32cd" points="405.42,-86.74 395.74,-91.05 405.99,-93.72 405.42,-86.74"/>
</a>
</g>
<text text-anchor="middle" x="466.5" y="-101.5" font-family="Helvetica,sans-Serif" font-size="10.00" fill="grey"> total_dequeued_</text>
<text text-anchor="middle" x="466.5" y="-90.5" font-family="Helvetica,sans-Serif" font-size="10.00" fill="grey">total_enqueued_</text>
</g>
<!-- Node4 -->
<g id="Node000004" class="node">
<title>Node4</title>
<g id="a_Node000004"><a xlink:href="../../d9/d4a/struct_benchmark_harness_1_1_statistics.html" target="_top" xlink:title="Performance statistics for a set of operations.">
<polygon fill="white" stroke="#666666" points="406,-67.5 251,-67.5 251,-37.5 406,-37.5 406,-67.5"/>
<text text-anchor="start" x="259" y="-55.5" font-family="Helvetica,sans-Serif" font-size="10.00">BenchmarkHarness&lt; Queue</text>
<text text-anchor="middle" x="328.5" y="-44.5" font-family="Helvetica,sans-Serif" font-size="10.00"> &gt;::Statistics</text>
</a>
</g>
</g>
<!-- Node4&#45;&gt;Node1 -->
<g id="edge3_Node000001_Node000004" class="edge">
<title>Node4&#45;&gt;Node1</title>
<g id="a_edge3_Node000001_Node000004"><a xlink:title=" ">
<path fill="none" stroke="#9a32cd" stroke-dasharray="5,2" d="M416.37,-48.89C445.84,-48.62 478.92,-49.38 509,-52.5 530.35,-54.72 553.86,-59.53 572.71,-63.99"/>
<polygon fill="#9a32cd" stroke="#9a32cd" points="416.06,-45.39 406.11,-49.02 416.15,-52.39 416.06,-45.39"/>
</a>
</g>
<text text-anchor="middle" x="466.5" y="-66.5" font-family="Helvetica,sans-Serif" font-size="10.00" fill="grey"> dequeue_stats_</text>
<text text-anchor="middle" x="466.5" y="-55.5" font-family="Helvetica,sans-Serif" font-size="10.00" fill="grey">enqueue_stats_</text>
</g>
<!-- Node5 -->
<g id="Node000005" class="node">
<title>Node5</title>
<g id="a_Node000005"><a xlink:title=" ">
<polygon fill="white" stroke="#666666" points="131,-62 0,-62 0,-43 131,-43 131,-62"/>
<text text-anchor="middle" x="65.5" y="-50" font-family="Helvetica,sans-Serif" font-size="10.00">std::vector&lt; uint64_t &gt;</text>
</a>
</g>
</g>
<!-- Node5&#45;&gt;Node4 -->
<g id="edge4_Node000004_Node000005" class="edge">
<title>Node5&#45;&gt;Node4</title>
<g id="a_edge4_Node000004_Node000005"><a xlink:title=" ">
<path fill="none" stroke="#9a32cd" stroke-dasharray="5,2" d="M141.44,-52.5C175.7,-52.5 216.25,-52.5 250.74,-52.5"/>
<polygon fill="#9a32cd" stroke="#9a32cd" points="141.02,-49 131.02,-52.5 141.02,-56 141.02,-49"/>
</a>
</g>
<text text-anchor="middle" x="191" y="-55.5" font-family="Helvetica,sans-Serif" font-size="10.00" fill="grey"> sorted_latencies</text>
</g>
<!-- Node6 -->
<g id="Node000006" class="node">
<title>Node6</title>
<g id="a_Node000006"><a xlink:title=" ">
<polygon fill="white" stroke="#666666" points="363,-19 294,-19 294,0 363,0 363,-19"/>
<text text-anchor="middle" x="328.5" y="-7" font-family="Helvetica,sans-Serif" font-size="10.00">std::mutex</text>
</a>
</g>
</g>
<!-- Node6&#45;&gt;Node1 -->
<g id="edge5_Node000001_Node000006" class="edge">
<title>Node6&#45;&gt;Node1</title>
<g id="a_edge5_Node000001_Node000006"><a xlink:title=" ">
<path fill="none" stroke="#9a32cd" stroke-dasharray="5,2" d="M373.39,-12.73C410.08,-16.12 463.56,-22.65 509,-34.5 537.49,-41.93 568.9,-55.04 588.78,-64"/>
<polygon fill="#9a32cd" stroke="#9a32cd" points="373.31,-9.21 363.04,-11.82 372.69,-16.18 373.31,-9.21"/>
</a>
</g>
<text text-anchor="middle" x="466.5" y="-37.5" font-family="Helvetica,sans-Serif" font-size="10.00" fill="grey"> stats_mutex_</text>
</g>
</g>
</svg>

<g id="navigator" transform="translate(0 0)" fill="#404254">
  <rect fill="#f2f5e9" fill-opacity="0.5" stroke="#606060" stroke-width=".5" x="0" y="0" width="60" height="60"/>
  <use id="zoomplus" xlink:href="#zoomPlus" x="17" y="9" onmousedown="handleZoom(evt,'in')"/>
  <use id="zoomminus" xlink:href="#zoomMin" x="42" y="9" onmousedown="handleZoom(evt,'out')"/>
  <use id="reset" xlink:href="#resetDef" x="30" y="36" onmousedown="handleReset()"/>
   <use id="arrowup" xlink:href="#arrowUp" x="0" y="0" onmousedown="handlePan(0,-1)"/>
  <use id="arrowright" xlink:href="#arrowRight" x="0" y="0" onmousedown="handlePan(1,0)"/>
  <use id="arrowdown" xlink:href="#arrowDown" x="0" y="0" onmousedown="handlePan(0,1)"/>
  <use id="arrowleft" xlink:href="#arrowLeft" x="0" y="0" onmousedown="handlePan(-1,0)"/>
</g>
<svg viewBox="0 0 15 15" width="100%" height="30px" preserveAspectRatio="xMaxYMin meet">
 <g id="arrow_out" transform="scale(0.3 0.3)">
  <a xlink:href="class_benchmark_harness__coll__graph_org.svg" target="_base">
   <rect id="button" ry="5" rx="5" y="6" x="6" height="38" width="38"
        fill="#f2f5e9" fill-opacity="0.5" stroke="#606060" stroke-width="1.0"/>
   <path id="arrow"
     d="M 11.500037,31.436501 C 11.940474,20.09759 22.043105,11.32322 32.158766,21.979434 L 37.068811,17.246167 C 37.068811,17.246167 37.088388,32 37.088388,32 L 22.160133,31.978069 C 22.160133,31.978069 26.997745,27.140456 26.997745,27.140456 C 18.528582,18.264221 13.291696,25.230495 11.500037,31.436501 z"
     style="fill:#404040;"/>
  </a>
 </g>
</svg>

<style type='text/css'>
<![CDATA[
[data-mouse-over-selected='false'] { opacity: 0.7; }
[data-mouse-over-selected='true']  { opacity: 1.0; }
]]>
</style>
<script type="application/ecmascript"><![CDATA[
document.addEventListener('DOMContentLoaded', (event) => {
  highlightEdges();
  highlightAdjacentNodes();
});
]]></script>
</svg>
