<?xml version="1.0" encoding="UTF-8" standalone="no"?>
<!DOCTYPE svg PUBLIC "-//W3C//DTD SVG 1.1//EN"
 "http://www.w3.org/Graphics/SVG/1.1/DTD/svg11.dtd">
<!-- Generated by graphviz version 2.42.4 (0)
 -->
<!-- Title: BenchmarkHarness&lt; Queue &gt; Pages: 1 -->
<svg width="701pt" height="159pt"
 viewBox="0.00 0.00 701.00 159.00" xmlns="http://www.w3.org/2000/svg" xmlns:xlink="http://www.w3.org/1999/xlink">
<g id="graph0" class="graph" transform="scale(1 1) rotate(0) translate(4 155)">
<title>BenchmarkHarness&lt; Queue &gt;</title>
<!-- Node1 -->
<g id="Node000001" class="node">
<title>Node1</title>
<g id="a_Node000001"><a xlink:title="Benchmark harness for MPMC queue implementations.">
<polygon fill="#999999" stroke="#666666" points="693,-83 527,-83 527,-64 693,-64 693,-83"/>
<text text-anchor="middle" x="610" y="-71" font-family="Helvetica,sans-Serif" font-size="10.00">BenchmarkHarness&lt; Queue &gt;</text>
</a>
</g>
</g>
<!-- Node2 -->
<g id="Node000002" class="node">
<title>Node2</title>
<g id="a_Node000002"><a xlink:title=" ">
<polygon fill="white" stroke="#666666" points="386,-151 271,-151 271,-132 386,-132 386,-151"/>
<text text-anchor="middle" x="328.5" y="-139" font-family="Helvetica,sans-Serif" font-size="10.00">std::atomic&lt; bool &gt;</text>
</a>
</g>
</g>
<!-- Node2&#45;&gt;Node1 -->
<g id="edge1_Node000001_Node000002" class="edge">
<title>Node2&#45;&gt;Node1</title>
<g id="a_edge1_Node000001_Node000002"><a xlink:title=" ">
<path fill="none" stroke="#9a32cd" stroke-dasharray="5,2" d="M396.68,-134.67C430.72,-130.3 472.48,-123.52 509,-113.5 537.49,-105.69 568.91,-92.28 588.78,-83.16"/>
<polygon fill="#9a32cd" stroke="#9a32cd" points="395.87,-131.25 386.38,-135.95 396.74,-138.19 395.87,-131.25"/>
</a>
</g>
<text text-anchor="middle" x="466.5" y="-132.5" font-family="Helvetica,sans-Serif" font-size="10.00" fill="grey"> stop_</text>
</g>
<!-- Node3 -->
<g id="Node000003" class="node">
<title>Node3</title>
<g id="a_Node000003"><a xlink:title=" ">
<polygon fill="white" stroke="#666666" points="395.5,-106 261.5,-106 261.5,-87 395.5,-87 395.5,-106"/>
<text text-anchor="middle" x="328.5" y="-94" font-family="Helvetica,sans-Serif" font-size="10.00">std::atomic&lt; uint64_t &gt;</text>
</a>
</g>
</g>
<!-- Node3&#45;&gt;Node1 -->
<g id="edge2_Node000001_Node000003" class="edge">
<title>Node3&#45;&gt;Node1</title>
<g id="a_edge2_Node000001_Node000003"><a xlink:title=" ">
<path fill="none" stroke="#9a32cd" stroke-dasharray="5,2" d="M406.1,-90.2C443.6,-87.11 488.79,-83.39 527,-80.25"/>
<polygon fill="#9a32cd" stroke="#9a32cd" points="405.42,-86.74 395.74,-91.05 405.99,-93.72 405.42,-86.74"/>
</a>
</g>
<text text-anchor="middle" x="466.5" y="-101.5" font-family="Helvetica,sans-Serif" font-size="10.00" fill="grey"> total_dequeued_</text>
<text text-anchor="middle" x="466.5" y="-90.5" font-family="Helvetica,sans-Serif" font-size="10.00" fill="grey">total_enqueued_</text>
</g>
<!-- Node4 -->
<g id="Node000004" class="node">
<title>Node4</title>
<g id="a_Node000004"><a xlink:href="../../d9/d4a/struct_benchmark_harness_1_1_statistics.html" target="_top" xlink:title="Performance statistics for a set of operations.">
<polygon fill="white" stroke="#666666" points="406,-67.5 251,-67.5 251,-37.5 406,-37.5 406,-67.5"/>
<text text-anchor="start" x="259" y="-55.5" font-family="Helvetica,sans-Serif" font-size="10.00">BenchmarkHarness&lt; Queue</text>
<text text-anchor="middle" x="328.5" y="-44.5" font-family="Helvetica,sans-Serif" font-size="10.00"> &gt;::Statistics</text>
</a>
</g>
</g>
<!-- Node4&#45;&gt;Node1 -->
<g id="edge3_Node000001_Node000004" class="edge">
<title>Node4&#45;&gt;Node1</title>
<g id="a_edge3_Node000001_Node000004"><a xlink:title=" ">
<path fill="none" stroke="#9a32cd" stroke-dasharray="5,2" d="M416.37,-48.89C445.84,-48.62 478.92,-49.38 509,-52.5 530.35,-54.72 553.86,-59.53 572.71,-63.99"/>
<polygon fill="#9a32cd" stroke="#9a32cd" points="416.06,-45.39 406.11,-49.02 416.15,-52.39 416.06,-45.39"/>
</a>
</g>
<text text-anchor="middle" x="466.5" y="-66.5" font-family="Helvetica,sans-Serif" font-size="10.00" fill="grey"> dequeue_stats_</text>
<text text-anchor="middle" x="466.5" y="-55.5" font-family="Helvetica,sans-Serif" font-size="10.00" fill="grey">enqueue_stats_</text>
</g>
<!-- Node5 -->
<g id="Node000005" class="node">
<title>Node5</title>
<g id="a_Node000005"><a xlink:title=" ">
<polygon fill="white" stroke="#666666" points="131,-62 0,-62 0,-43 131,-43 131,-62"/>
<text text-anchor="middle" x="65.5" y="-50" font-family="Helvetica,sans-Serif" font-size="10.00">std::vector&lt; uint64_t &gt;</text>
</a>
</g>
</g>
<!-- Node5&#45;&gt;Node4 -->
<g id="edge4_Node000004_Node000005" class="edge">
<title>Node5&#45;&gt;Node4</title>
<g id="a_edge4_Node000004_Node000005"><a xlink:title=" ">
<path fill="none" stroke="#9a32cd" stroke-dasharray="5,2" d="M141.44,-52.5C175.7,-52.5 216.25,-52.5 250.74,-52.5"/>
<polygon fill="#9a32cd" stroke="#9a32cd" points="141.02,-49 131.02,-52.5 141.02,-56 141.02,-49"/>
</a>
</g>
<text text-anchor="middle" x="191" y="-55.5" font-family="Helvetica,sans-Serif" font-size="10.00" fill="grey"> sorted_latencies</text>
</g>
<!-- Node6 -->
<g id="Node000006" class="node">
<title>Node6</title>
<g id="a_Node000006"><a xlink:title=" ">
<polygon fill="white" stroke="#666666" points="363,-19 294,-19 294,0 363,0 363,-19"/>
<text text-anchor="middle" x="328.5" y="-7" font-family="Helvetica,sans-Serif" font-size="10.00">std::mutex</text>
</a>
</g>
</g>
<!-- Node6&#45;&gt;Node1 -->
<g id="edge5_Node000001_Node000006" class="edge">
<title>Node6&#45;&gt;Node1</title>
<g id="a_edge5_Node000001_Node000006"><a xlink:title=" ">
<path fill="none" stroke="#9a32cd" stroke-dasharray="5,2" d="M373.39,-12.73C410.08,-16.12 463.56,-22.65 509,-34.5 537.49,-41.93 568.9,-55.04 588.78,-64"/>
<polygon fill="#9a32cd" stroke="#9a32cd" points="373.31,-9.21 363.04,-11.82 372.69,-16.18 373.31,-9.21"/>
</a>
</g>
<text text-anchor="middle" x="466.5" y="-37.5" font-family="Helvetica,sans-Serif" font-size="10.00" fill="grey"> stats_mutex_</text>
</g>
</g>
</svg>
